<?xml version="1.0" encoding="UTF-8"?><svg id="logotipo" xmlns="http://www.w3.org/2000/svg" viewBox="0 0 411.66 312.23"><defs><style>.cls-1,.cls-2{font-family:Montserrat-BlackItalic, Montserrat;font-size:63.7px;}.cls-3{letter-spacing:0em;}.cls-4{letter-spacing:0em;}.cls-2,.cls-5{fill:#fff;}.cls-5{font-family:Futura-CondensedExtraBold, Futura;font-size:22.29px;}</style></defs><g><rect y="218.81" width="411.66" height="93.42"/><text class="cls-2" transform="translate(49.3 244.93)"><tspan class="cls-3" x="0" y="0">P</tspan><tspan x="46.69" y="0">REMIER</tspan></text><text class="cls-1" transform="translate(50.57 237.28)"><tspan class="cls-3" x="0" y="0">P</tspan><tspan x="46.69" y="0">REMIER</tspan></text><text class="cls-5" transform="translate(171.56 279.81)"><tspan class="cls-4" x="0" y="0">S</tspan><tspan x="10.41" y="0">TUDIO</tspan></text></g><g><path d="M197.09,105.29c1.96,.48,1.17,2.89,1.95,3.01,.24,.04,.49,.07,.72,.1,.57,.07,1.15,.07,1.73,0,.22-.03,.47-.06,.72-.1,.78-.12-.01-2.53,1.95-3.01,1.45-.35,2.97,.1,3.44-.44,.88-.99-1.25-1.83-1.25-1.83,0,0,.77,.58-2.09,1.09-1.95,.35-1.69,1.29-2.16,1.64-.05,.04-.17,.08-.32,.12-.75,.21-1.55,.21-2.3,0-.15-.04-.27-.08-.32-.12-.47-.35-.21-1.29-2.16-1.64-2.86-.51-2.09-1.09-2.09-1.09,0,0-2.13,.84-1.25,1.83,.48,.54,2,.09,3.44,.44Z"/><path d="M209.44,111.03s.13,.72,.05,.93c-.25,.65-4.16-2.98-5.23-2.43-.93,.47-1.63,.8-2.14,1.03-.69,.31-1.47,.31-2.16,0-.51-.23-1.22-.56-2.14-1.03-1.08-.55-4.98,3.09-5.23,2.43-.08-.2,.05-.93,.05-.93,0,0-.93,.49-.88,1.04,.05,.55,1.91,.63,1.91,.63,0,0,3.37-1.83,4.25-1.62,.17,.04,.35,.12,.52,.21,.01,0,.24,.14,.57,.32,.12,.07,.25,.14,.39,.21,.62,.33,1.37,.69,1.69,.7,.58,0,2.36-1.13,2.56-1.23,.18-.1,.35-.17,.53-.21,.88-.21,4.25,1.62,4.25,1.62,0,0,1.85-.08,1.91-.63,.05-.55-.88-1.04-.88-1.04Z"/><path d="M293.36,74.47s-8.49-2.34-15.93,.39c-9.01,3.29-17.71,2.23-23.38-.44-3.61-1.7-6.82-2.49-8.67-2.83,2.24-2.75,4.09-5.44,6.45-6.46,5.8-2.5,14.51,1.19,14.51,1.19-11.79-13.77-28.33-2.81-28.33-2.81,4.15-4.71,14.81-6.93,14.81-6.93-7.82-2.84-14.38-.32-18.53,2.32,3.44-5.65,4.2-12.23,4.2-12.23-1.53,5.03-8.7,8.19-8.7,8.19,8.95-7.99,6.87-17.83,6.87-17.83-4.61,9.33-11.89,10.09-17.6,10.22-3.86,.09-4.83,.41-5.06,.61,.24-.87,1.36-5.29,1.13-12.58-.58-18.1-12.63-24.04-12.63-24.04,7.76,7.62,2.75,23.88,2.75,23.88,1.3-5.93-4.46-15.39-4.46-15.39,0,0,1.61,9.98-5.02,14.22-6.63,4.24-8.41,10.52-8.41,10.52-1.45-2.15-5.56-3.82-10.03-6.59s-4.97-9.53-4.97-9.53c-6.11,8.25-3.84,15.35-2.41,18.27-.13-.03-.25-.06-.37-.1-3.9-1.09-9.99-1.63-13.94-4.53-4.8-3.52-6.67-12.52-6.67-12.52v.05s0-.05,0-.05c-3.47,13.91,5.89,23.49,5.89,23.49-2.73-.51-6.55-5.69-6.55-5.69,.58,16.41,15.33,18.36,15.33,18.36-4.46,8.73-10.08,6.2-18.26,2.67-8.18-3.53-12.64,3.27-12.64,3.27,6.57-3.24,12.44,2.34,14.53,6.45,2.09,4.11,7.64,8.23,7.64,8.23,0,0,.7,.25-15.1-2.91-15.8-3.16-23.16,10.51-23.16,10.51,6.12-5.79,17.54-2.77,22.15,1.87,4.62,4.64,10.59,5.63,10.59,5.63-3.35,.97-9.43-2.69-9.43-2.69,6.27,13.66,20.31,10.76,20.31,10.76-12.5,9.37-4.21,20.22-4.21,20.22-.4-5.72,2.9-10.03,11.3-10.42,2.35-.11,4.53-.8,6.45-1.73-.08,1.87,.16,5.24,1.74,10.85,2.77,9.79-4.63,12.69-4.63,12.69,15.16,.35,17.92-13.12,17.92-13.12,0,0,1.72,1.1,7.39,8.04,4.97,6.09-.74,11.34,.73,18.36,.02,.08,.05,.16,.08,.24,.8,4.67,7.73,7.68,7.73,7.68-4.15-12.04,5.85-15.08,10.17-20.36,4.85-5.93,1.02-12.31,1.02-12.31,3.83-.08,7.11,9.26,7.11,9.26,1.96-8.76-3.62-11.96-3.62-11.96,7.52,2.65,5.29,13.2,5.29,13.2,4.9-6.77,3.95-15.35-.8-20.13-4.75-4.78-3.77-9.74-3.77-9.74,3.71,6.65,10.54,6.15,17.51,8.02,7.24,1.94,9.62,11.44,9.62,11.44,.78-11.49-3.95-16.81-5.52-18.25,5.21,4.02,12.79,.31,12.79,.31-12.81-.59-13.29-6.02-16.87-10.19,8.82-.55,17.57-9.17,23.38-10.7,5.84-1.54,12.38,1.39,12.38,1.39-4.8-5.57-11.17-5.35-11.17-5.35,9.32-.31,9.92-2.99,15.59-6.75,5.67-3.76,15.51-5.64,15.51-5.64Zm-58.38-13.86c2.76-4.82,12.59-3.64,12.59-3.64,0,0-14.98,2.12-11.77,9,0,0,16.53-9.05,24.92-2.44,0,0-9.88-3.24-14.3,3.18-3.69,5.37-7.97,12.43-15.52,10.16,0,0,0,0,0,0,.17-.57,.32-1.14,.44-1.72,2.21,.58,4.23-.33,6.38-5.72,.87-2.18,2.77-2.57,2.77-2.57,0,0-2.51-.85-4.6,2.49-2.44,3.9-4.08,2.88-4.31,2.71,0-.01,0-.03,0-.04,1.75-1.14,1.97-6.19,1.97-6.19-.5,1.45-1.96,2.57-2.92,3.18-.75-1.23-1.98-2.33-3.91-3.23,0,0,5.49-.35,8.25-5.18Zm-29.1,9.2c-2.99-2.12-3.24-6.33-3.05-9,.15-2.17,1.56-4.09,3.62-4.79,3.81-1.29,8.68,.61,10.46,4.59,2.38,5.31,6.09,4.73,10.56,8.23l.9,1.05c2.63,4.55-2.25,15.9-1.31,19.38,1.02,3.8,5.54,2.18,5.54,2.18,0,0-1.4,4.46-4.89,3.89-4.6-.75-4.17-3.38-6.62-10.48s-8.39-11.01-8.39-11.01c2.85-1.07,9.14,3.87,9.14,3.87-6.75-8.53-11.36-4.66-15.95-7.9Zm10.98-19.78c10.35-.3,15.76-3.12,18.42-8.99,0,0-1.71,12.25-9.38,15.16,0,0,6.47,1.75,10.18-4.02,0,0-1.85,6.77-8.03,9.53-2.63,1.17-5.75,.69-8.11-.97-1.24-.87-1.84-2.31-2.7-3.94-.07-.14-.15-.28-.23-.41,6.24,0,8.86-4.85,8.86-4.85,0,0-3.2,3.35-8.82,1.86-5.62-1.48-10.81,1.09-10.81,1.09,0,0,4.67-4.29,10.61-4.46Zm-24.46-9.19c5.38-5.97,8.69-4.91,9.61-15.66,0,0,3.25,11.02,1.77,17.16,0,0,7.45-12.21,5.02-22.15,0,0,13.31,19.56-4.84,34.99h-.01c-.02-.16-.61-3.76-4.58-4.62-.27-1.19-.28-2.72,.54-4.44,1.9-3.95,1.34-9.02,1.34-9.02-.73,3.96-2.34,5.81-4.59,9.33-1.06,1.66-1.33,3.1-1.31,4.16-1.73,.31-3.79,.98-6.27,2.17,0,0-2.05-5.96,3.33-11.92Zm1.32,12.1c4.59-.91,9.93,1.64,7.25,5.76,0,0-3.8-5.82-13.47,.59,2-.87,5.72-2.04,12.25,1.32,0,0-2.64,5.56-8.49,6.56-5.84,1-12.79-.26-15.84,6.99,0,0,3.42-3.28,8.64-3.38l1.71-.15c-8.83,7.02-8.38,7.72-11.36,15.82-2.82,7.66-8.51,3.23-9.11,2.74,2.87-.85,5.24-2.76,4.96-6.82-.67-9.79,.47-11.74,3.92-13.77,1.3-.74,2.31-1.28,3.15-1.75,2.36-1.32,3.35-2.1,5.59-5.27,0,0,4.32-7.35,10.79-8.63Zm-22.65,44.1c-2.38,.56-6.15,1.22-8.92,.58,0,0,4.05-.7,6.64-1.99,.72,.53,1.48,1.02,2.29,1.41Zm.86-64.93s-.9,6.62,8.23,9.81c.06,.02,.11,.05,.17,.07,3.76,1.59,5.85,5.66,4.89,9.63-.62,2.58-.71,4.61-.71,4.61,0,0,0-.02-.02-.07-.28-.96-.8-1.82-1.46-2.57-1.53-1.98-4.55-4.61-10.31-6.24-.2-.06-.1-.03,0,0-3.68-5.37-.8-15.24-.8-15.24Zm-8.73,29.67c-9.33,.74-13.69-11.06-13.69-11.06,5.51,9.75,10.79,4.85,10.79,4.85-8.39-3.04-10.69-19.03-10.69-19.03,3.28,7.71,6.33,11.82,14.21,12.19,15.59,.73,15.96,9.22,15.96,9.22-1.29-.64-2.7-.86-4.08-.81,0,0,0,0,0,0,0,0,0,0-.02,0-.22,0-.45,.02-.67,.05-2.17,.12-8.79,.22-11.18-2.7,0,0,1.23,4.31,5.16,4.9-.05,.03-.09,.07-.14,.1-1.64,1.26-3.57,2.12-5.64,2.29Zm-15.16,13.12c-2.57-4.36-6.6-5.27-6.6-5.27,0,0,4.91,.34,10.48,3.79,5.57,3.44,12.84-3.84,13.29-7.57,.45-3.73,11.11-9.66,14.99-4.57,0,0,0,1.26-.96,2.74-5.55-1.15-10.16,3.35-10.16,3.35,4.32-1.93,6.64-1.41,7.64-.93-.72,.45-1.59,.88-2.63,1.23-6.11,2.07-9.83,5.77-8.52,13.93l.04,.03c-.9,1.66-2.33,3.03-4.78,3.62l-.03,.03c-6.24,.82-10.62-6.76-12.75-10.37Zm9.19,32.99c-8.88-.59-11.24-4.35-11.24-4.35,0,0,7.83,.8,10.36-2.64,0,0-8.76-.91-13.73-4.25-4.97-3.34-6.57-5.46-9.68-6.61,0,0,7.01,0,12.66,2.71,0,0-10.41-7.44-19.64-5.25,0,0,7.37-4.03,16.65-1.55,9.28,2.48,16.5,4.63,21.07,4.38,0,0,1.29,1.89,3.3,3.78-2.48,.98-8.35,2.53-14.44-1.36,0,0,8.49,10.32,18.46,6.62-1.15,3.27-4.51,9.12-13.79,8.5Zm6.67,9.68c-6.52,1.49-8.63,6.04-8.63,6.04-.95-13.44,9.43-13.85,14.48-15.73,3.08-1.14,5.5-4.18,6.93-6.38,.39,.96,1.17,2.77,1.97,4.59-.01,.27-.03,.53-.05,.78-.16,2.19-.91,4.31-2.25,6.05-3.15,4.09-7.09,3.41-12.45,4.64Zm12.44,21.13c3.37-2.59-.13-11.67-.35-13.8-.22-2.12-.85-5.92,2.91-8.06,.99-.56,1.78-1.26,2.42-1.97,.84,2.79,2.51,9.62,.58,14.74,0,0,3.69-6.25,2.68-14.86,2.5,2.96,3.32,9.78,3.32,9.78-2.74,12.25-11.55,14.16-11.55,14.16Zm69.41-16.45s-.01-.04-.02-.06c.01,.04,.02,.06,.02,.06Zm1.67-10.94c-6.67,.48-11.19-5.42-11.19-5.42,0,0,.46,5.95,6.05,7.95,1.39,2.84,2.76,6.46,3.26,7.84-1.93-4.76-7.82-5.43-14.8-6.82-.48-.11-1.07-.24-1.8-.37-.21-.05-.43-.09-.65-.14,0,0-.78-.18-1.89-.63-2.34-1.05-3.57-2.73-4.22-4.14,1.06,.28,2.43,.43,4.22,.34,6.27-.33,11.58,2.54,11.58,2.54,0,0-3.63-3.64-9.12-5.54-8.12-2.81-7.61-11.89-7.61-11.89l-.89,6.5c-.23,1.7-.8,3.34-1.67,4.83-.3,.75-.68,1.64-1.09,2.52-1.21-.42-2.19-4.02-5.33-6.7-3.51-3,4.61,5.38,2.01,11.25l.98-.39,.85-1.26c.19,.67,1.47,4.44,7.54,10.68,4.92,5.06,2.23,12.75,2.23,12.75,0,0,.26-9.69-10.15-10.74,0,0,4.04,3.08,4.92,6.51,0,0-2.97-3.85-5.54-3.32l-1.82-1.97-6.32-10.06c-.04-.06-.06-.1-.06-.1-.75-.34-.64,.24-1.47,.42-.36,.08-4.33-.41-4.33-.41-2.02-.44-4.64,1.36-4.83-.01-.19-1.38-2.39-1.05-1.82,.24,.33,.76,1.22,1.85,1.89,2.63,.44,.51,1.23,.5,1.66,0,0,0,.48-.89,3.22-.91,1.39,0,2.81-.13,3.81,.04,0,0,.02,0,.02,0-.62,1.23-1.29,2.66-3.01,3.13,0,0,7.93,10.96,5.47,19.27,0,0,4.62-9.05-1.5-18.93,0,0,.01,0,.04,0h-.04c2.83,1.35,6.27,4.87,7.25,8.47,1.93,7.1-3.33,13.75-5.84,16.11-2.51,2.36-7.15,7.37-5.48,13.67-.04-.04-.08-.08-.12-.12-.62-.66-3.39-4.06-1.42-10.38,.4-1.07,.88-2.08,1.31-3.01,.04-.08,.07-.16,.11-.24h0s.01-.02,.02-.04c.07-.18,.14-.35,.2-.54,5.33-14.45-5.42-20.45-5.42-20.45l3.92,7.72-2.34-1.88c5.17,8.01,2.95,11.73,2.95,11.73-.8-4.18-2.77-7.51-4.3-9.59-1.62-2.21-3.06-4.55-4.26-7.01l-3.01-6.22,6.35,2.88-10.78-9.77c-1.29-5.75,5.66-12.96,2.37-10.15-3.51,3-4.32,7.14-5.77,6.72-1.17-.34-2.16-9.36-2.5-12.79l4.62,1.48-3.8-3.16c-1.59-1.33-2.68-3.16-3.09-5.2l-.1-.48c-.38-1.92,.42-3.88,2.04-4.98,.76-.52,1.74-.56,2.54-.1l1.94,1.11c.47,.27,.38,.97-.14,1.11l-.27,.08s1.08,4.53,3.46,5c2.96,.57,2.7-.33,6.09,.33l.06-1.26c-1.27-1.5-2.27-2.44-4.02-3.36l2.85,1.07c2.75,.95,2.65,2.36,2.32,4.12-.05,.28,0,.58,.16,.82l3.81,6.08s-2.15-5.28-1.8-6.8,1.87-4.06,.92-6.23c-.95-2.18,.63-4.55,.63-4.55l-1.16,.64c-2.41,1.34-3.91,1.05-6.77,.26l-5.01-1.79c-.97-.45-2.1-.38-3.01,.19l-2.99,1.87c.84-1.17,1.98-2.73,3.22-4.38l.43-.52-.06,.03c1.89-2.49,3.97-5.12,5.58-6.83,0,0,8.53-1.35,13.2-6.94-.06,4.51,.81,11.75,6.71,13.65,3.46,1.12,6.2,1.41,8.1,2.74-.19,.05-.38,.11-.56,.19l-5.01,1.79c-2.86,.8-4.36,1.08-6.77-.26l-1.16-.64s1.57,2.37,.63,4.55c-.89,2.05,.96,5.05,1.48,6.66,.08,.24,.22,.46,.44,.58,.28,.17,.53,.04,.92-.87,.7-1.64-.18-3.41,2.58-4.36l2.85-1.07c-1.74,.92-2.74,1.86-4.02,3.36l.06,1.26c3.39-.66,3.13,.24,6.09-.33,2.39-.46,3.46-5,3.46-5l-.27-.08c-.52-.15-.61-.85-.14-1.11l1.79-1.03c.67,2.4,.79,6.03,.3,11.72l-2.54,2.12,2.42-.77c-.1,1.04-.22,2.15-.36,3.32,0,0,3.12-4.91,3.66-8.63,0,0,.08,.95,.55,2.09,1.12,3.31,4.26,9.15,12.01,6.75,.97,.84,1.9,1.86,2.73,3.1,4.36,6.55,10.5,7.88,10.5,7.88Zm24.31-29.34c.69-.33,1.03-.32,1.03-.32-.34,.2-1.81,1.2-2.18,1.37-3.02,1.45-8.69,3.5-16.59,2.2,0,0,8.65,3.32,11.32,3.96,.42,.05,.65,.11,.65,.11-.13,0-.35-.04-.65-.11-1.45-.19-5.19-.38-9.93,1.59-5.98,2.49-12.68,8.68-21.19,7.48-.97-.82-1.73-1.38-2.31-1.77,3.24-1.9,3.35-5.85,3.35-5.85,0,0-1.98,.15-3.75-.27,4.39-.7,6.02-2.18,8.92-5.3,3.42-3.68,8.83-3.96,8.83-3.96,0,0-3.3-2.58-8.03,.1-7.32,4.16-11.01,3.13-11.01,3.13,3.89-1.24,7.08-4.82,8.48-6.82,1.03-.54,1.97-1.19,2.83-1.9,2.57-.51,7.38-.88,13.13,1.38,10.87,4.29,19.12,1.05,22.18-.15,0,0-6.53,4.44-15.45,4.51,0,0,4.82,3.01,10.37,.61Z"/><path d="M172.72,47.36s0,0,0,0c.18,.05,.09,.02,0,0Z"/></g></svg>