<?xml version="1.0" encoding="UTF-8"?><svg id="fibonacci" xmlns="http://www.w3.org/2000/svg" viewBox="0 0 607.78 89.22"><path d="M121.56,34.12c-7.75,17.74-26.21,28.92-47.56,28.92h-11.06l-8.22,18.84H28.87L62.34,5.21h36.91c21.36,0,30.06,11.17,22.31,28.91Zm-26.07,0c2.44-5.59,.53-8.98-6.59-8.98h-9.42l-7.84,17.96h9.42c7.12,0,12-3.4,14.44-8.98Z"/><path d="M151.52,62.6h-7.01l-8.42,19.28h-25.85L143.71,5.21h36.91c21.36,0,30.06,11.17,22.31,28.91-4.83,11.06-13.72,19.39-24.98,24.1l5.77,23.66h-27.6l-4.62-19.28Zm18.76-37.46h-9.42l-7.84,17.96h9.42c7.12,0,12-3.4,14.44-8.98,2.44-5.59,.53-8.98-6.59-8.98Z"/><path d="M264.09,62.38l-8.51,19.5h-63.75L225.31,5.21h62.32l-8.51,19.49h-36.91l-3.92,8.98h32.42l-8.13,18.62h-32.42l-4.4,10.08h38.33Z"/><path d="M334,81.87l15.03-34.94-28.89,28.04h-11.39l-4.93-26.83-14.73,33.73h-23.55L299.02,5.21h21.25l7.14,40.85L369.55,5.21h21.25l-33.25,76.67h-23.55Z"/><path d="M403.5,5.21h25.85l-33.47,76.67h-25.85L403.5,5.21Z"/><path d="M480.62,62.38l-8.51,19.5h-63.75L441.83,5.21h62.32l-8.51,19.49h-36.91l-3.92,8.98h32.42l-8.13,18.62h-32.42l-4.4,10.08h38.33Z"/><path d="M523.34,62.6h-7.01l-8.42,19.28h-25.85L515.54,5.21h36.91c21.36,0,30.06,11.17,22.31,28.91-4.83,11.06-13.72,19.39-24.98,24.1l5.77,23.66h-27.6l-4.62-19.28Zm18.76-37.46h-9.42l-7.84,17.96h9.42c7.12,0,12-3.4,14.44-8.98,2.44-5.59,.53-8.98-6.59-8.98Z"/></svg>