<?xml version="1.0" encoding="UTF-8"?><svg id="logotipo" xmlns="http://www.w3.org/2000/svg" viewBox="0 0 404.95 347.13"><path d="m184.36,216c4.49,1.09,2.68,6.61,4.46,6.87.56.08,1.13.16,1.64.22,1.31.16,2.63.16,3.95,0,.51-.06,1.08-.14,1.64-.22,1.78-.27-.03-5.78,4.46-6.87,3.31-.8,6.78.22,7.87-1,2.01-2.26-2.87-4.19-2.87-4.19,0,0,1.76,1.33-4.78,2.5-4.46.8-3.87,2.95-4.93,3.75-.12.09-.39.19-.73.28-1.72.47-3.54.47-5.26,0-.34-.09-.61-.19-.73-.28-1.07-.81-.48-2.95-4.93-3.75-6.55-1.17-4.78-2.5-4.78-2.5,0,0-4.88,1.92-2.87,4.19,1.09,1.23,4.56.2,7.87,1Z"/><path d="m212.6,229.13s.3,1.65.12,2.12c-.57,1.5-9.5-6.81-11.97-5.56-2.12,1.07-3.73,1.83-4.9,2.36-1.57.71-3.37.71-4.94,0-1.17-.53-2.78-1.29-4.9-2.36-2.47-1.25-11.39,7.06-11.97,5.56-.18-.47.12-2.12.12-2.12,0,0-2.13,1.12-2.01,2.38.12,1.26,4.36,1.44,4.36,1.44,0,0,7.7-4.19,9.72-3.71.4.09.79.27,1.2.49.03.02.56.33,1.3.74.28.16.58.32.89.48,1.42.76,3.13,1.58,3.86,1.6,1.32.02,5.4-2.58,5.84-2.81.41-.22.81-.39,1.21-.49,2.01-.48,9.72,3.71,9.72,3.71,0,0,4.23-.17,4.36-1.44.12-1.26-2.01-2.38-2.01-2.38Z"/><path d="m404.43,145.55s-19.41-5.34-36.42.88c-20.59,7.53-40.49,5.09-53.45-1.01-8.26-3.89-15.59-5.68-19.83-6.47,5.13-6.29,9.35-12.44,14.74-14.76,13.25-5.72,33.16,2.72,33.16,2.72-26.94-31.47-64.77-6.42-64.77-6.42,9.48-10.76,33.86-15.84,33.86-15.84-17.88-6.49-32.87-.74-42.37,5.3,7.87-12.92,9.6-27.95,9.6-27.95-3.51,11.49-19.88,18.72-19.88,18.72,20.46-18.27,15.71-40.77,15.71-40.77-10.55,21.33-27.18,23.07-40.23,23.37-8.82.2-11.05.93-11.57,1.39.56-1.99,3.11-12.1,2.58-28.76-1.33-41.38-28.87-54.95-28.87-54.95,17.74,17.41,6.29,54.58,6.29,54.58,2.97-13.56-10.19-35.18-10.19-35.18,0,0,3.67,22.82-11.49,32.51-15.16,9.69-19.23,24.04-19.23,24.04-3.31-4.91-12.7-8.73-22.92-15.07-10.22-6.33-11.36-21.79-11.36-21.79-13.97,18.86-8.78,35.1-5.52,41.76-.29-.07-.57-.15-.85-.22-8.9-2.49-22.83-3.73-31.86-10.35-10.98-8.05-15.24-28.61-15.24-28.61v.11c0-.06,0-.11,0-.11-7.93,31.8,13.45,53.69,13.45,53.69-6.23-1.17-14.98-13.01-14.98-13.01,1.32,37.5,35.04,41.97,35.04,41.97-10.2,19.96-23.04,14.17-41.74,6.11-18.7-8.06-28.9,7.47-28.9,7.47,15.02-7.41,28.44,5.34,33.22,14.74,4.78,9.4,17.47,18.81,17.47,18.81,0,0,1.6.58-34.53-6.65C17.2,158.57.38,189.82.38,189.82c13.98-13.23,40.09-6.33,50.64,4.28,10.55,10.61,24.21,12.87,24.21,12.87-7.65,2.22-21.55-6.15-21.55-6.15,14.34,31.23,46.42,24.59,46.42,24.59-28.57,21.42-9.61,46.23-9.61,46.23-.92-13.08,6.63-22.93,25.83-23.83,5.38-.25,10.36-1.82,14.74-3.94-.19,4.26.36,11.98,3.98,24.8,6.33,22.39-10.59,29.02-10.59,29.02,34.65.8,40.96-29.99,40.96-29.99,0,0,3.93,2.5,16.9,18.39,11.37,13.92-1.69,25.93,1.67,41.98.04.19.12.37.19.55,1.82,10.68,17.68,17.56,17.68,17.56-9.5-27.53,13.38-34.48,23.25-46.55,11.08-13.55,2.33-28.14,2.33-28.14,8.75-.19,16.26,21.18,16.26,21.18,4.47-20.03-8.28-27.34-8.28-27.34,17.18,6.06,12.08,30.18,12.08,30.18,11.2-15.46,9.03-35.09-1.83-46.01-10.87-10.92-8.62-22.26-8.62-22.26,8.48,15.2,24.08,14.07,40.03,18.34,16.55,4.43,22,26.14,22,26.14,1.79-26.27-9.02-38.43-12.63-41.72,11.91,9.2,29.23.7,29.23.7-29.29-1.34-30.37-13.76-38.57-23.3,20.17-1.25,40.16-20.97,53.44-24.47,13.36-3.51,28.3,3.17,28.3,3.17-10.97-12.72-25.53-12.24-25.53-12.24,21.3-.71,22.67-6.82,35.64-15.43,12.97-8.6,35.45-12.88,35.45-12.88Zm-133.44-31.68c6.31-11.03,28.78-8.33,28.78-8.33,0,0-34.24,4.84-26.91,20.58,0,0,37.78-20.68,56.96-5.57,0,0-22.59-7.41-32.68,7.27-8.43,12.27-18.23,28.42-35.47,23.22,0,0,0,0,0,0,.39-1.3.73-2.61,1-3.94,5.05,1.34,9.67-.76,14.6-13.07,2-4.98,6.34-5.86,6.34-5.86,0,0-5.75-1.95-10.53,5.69-5.58,8.92-9.33,6.59-9.85,6.2,0-.03,0-.06,0-.09,4-2.6,4.51-14.15,4.51-14.15-1.15,3.32-4.49,5.88-6.67,7.26-1.71-2.8-4.53-5.33-8.94-7.38,0,0,12.56-.81,18.87-11.83Zm-66.53,21.03c-6.84-4.85-7.41-14.47-6.98-20.57.35-4.96,3.56-9.36,8.27-10.95,8.7-2.95,19.83,1.39,23.91,10.5,5.43,12.14,13.92,10.82,24.14,18.8l2.07,2.41c6.02,10.4-5.14,36.34-2.99,44.3,2.34,8.69,12.67,4.99,12.67,4.99,0,0-3.2,10.19-11.19,8.89-10.51-1.71-9.54-7.72-15.13-23.96-5.59-16.25-19.19-25.18-19.19-25.18,6.52-2.45,20.89,8.84,20.89,8.84-15.43-19.5-25.97-10.65-36.45-18.07Zm25.1-45.21c23.65-.69,36.04-7.14,42.11-20.56,0,0-3.9,28-21.44,34.64,0,0,14.79,4,23.28-9.19,0,0-4.23,15.48-18.37,21.79-6.01,2.68-13.14,1.57-18.53-2.21-2.83-1.98-4.2-5.27-6.17-9.02-.17-.32-.35-.63-.53-.93,14.26,0,20.26-11.09,20.26-11.09,0,0-7.31,7.66-20.16,4.26-12.85-3.39-24.71,2.49-24.71,2.49,0,0,10.68-9.8,24.26-10.19Zm-55.91-21c12.29-13.64,19.88-11.22,21.97-35.81,0,0,7.42,25.2,4.04,39.24,0,0,17.04-27.92,11.47-50.63,0,0,30.43,44.72-11.07,80h-.03c-.06-.36-1.39-8.6-10.47-10.57-.62-2.72-.64-6.23,1.24-10.14,4.35-9.04,3.05-20.62,3.05-20.62-1.66,9.06-5.35,13.27-10.49,21.32-2.42,3.78-3.03,7.08-3,9.51-3.94.71-8.67,2.25-14.33,4.96,0,0-4.68-13.62,7.61-27.26Zm3.01,27.66c10.5-2.07,22.71,3.75,16.58,13.17,0,0-8.68-13.31-30.79,1.35,4.58-1.98,13.07-4.66,27.99,3.01,0,0-6.04,12.71-19.4,15-13.36,2.29-29.24-.61-36.21,15.98,0,0,7.83-7.5,19.75-7.72l3.9-.34c-20.18,16.06-19.15,17.66-25.96,36.16-6.45,17.51-19.45,7.39-20.82,6.25,6.56-1.94,11.98-6.3,11.35-15.59-1.53-22.37,1.08-26.83,8.96-31.48,2.97-1.7,5.28-2.93,7.2-4.01,5.39-3.03,7.67-4.8,12.78-12.06,0,0,9.87-16.79,24.67-19.72Zm-51.79,100.8c-5.43,1.29-14.05,2.79-20.4,1.33,0,0,9.25-1.59,15.17-4.55,1.64,1.22,3.39,2.33,5.23,3.22Zm1.97-148.42s-2.07,15.13,18.82,22.42c.13.05.26.11.39.16,8.59,3.64,13.36,12.94,11.19,22.01-1.42,5.9-1.61,10.54-1.61,10.54,0,0-.02-.06-.05-.16-.65-2.2-1.82-4.15-3.33-5.87-3.5-4.52-10.4-10.55-23.57-14.25-.45-.13-.22-.06,0,0-8.42-12.28-1.83-34.85-1.83-34.85Zm-19.96,67.82c-21.32,1.7-31.3-25.28-31.3-25.28,12.59,22.3,24.65,11.1,24.65,11.1-19.19-6.94-24.43-43.51-24.43-43.51,7.49,17.62,14.48,27.03,32.47,27.86,35.65,1.66,36.49,21.07,36.49,21.07-2.96-1.46-6.18-1.96-9.33-1.85,0,0,0,0,0,0,0,0-.02,0-.05,0-.51.02-1.03.05-1.54.11-4.95.27-20.1.5-25.57-6.16,0,0,2.81,9.85,11.8,11.21-.11.08-.21.16-.31.23-3.75,2.89-8.17,4.85-12.89,5.23Zm-34.66,29.99c-5.88-9.98-15.09-12.05-15.09-12.05,0,0,11.22.78,23.95,8.65,12.73,7.87,29.36-8.78,30.39-17.31,1.03-8.53,25.4-22.09,34.26-10.44,0,0,0,2.88-2.2,6.27-12.7-2.64-23.22,7.65-23.22,7.65,9.87-4.4,15.17-3.23,17.47-2.13-1.65,1.04-3.62,2-6.02,2.81-13.98,4.73-22.47,13.2-19.48,31.84l.09.08c-2.06,3.8-5.32,6.94-10.93,8.27l-.07.06c-14.27,1.88-24.27-15.45-29.14-23.71Zm21.02,75.42c-20.3-1.34-25.69-9.94-25.69-9.94,0,0,17.89,1.83,23.69-6.02,0,0-20.02-2.08-31.38-9.73-11.35-7.64-15.02-12.48-22.13-15.11,0,0,16.04,0,28.95,6.2,0,0-23.79-17.01-44.89-12,0,0,16.86-9.22,38.07-3.54,21.21,5.68,37.73,10.58,48.16,10.02,0,0,2.95,4.32,7.54,8.65-5.67,2.24-19.09,5.79-33-3.1,0,0,19.41,23.59,42.2,15.13-2.62,7.47-10.31,20.84-31.53,19.44Zm15.25,22.13c-14.91,3.41-19.72,13.82-19.72,13.82-2.18-30.71,21.56-31.67,33.1-35.95,7.04-2.61,12.58-9.56,15.84-14.59.9,2.2,2.69,6.32,4.51,10.5-.03.62-.07,1.22-.11,1.79-.36,5.01-2.09,9.86-5.15,13.84-7.21,9.35-16.22,7.8-28.46,10.6Zm28.44,48.31c7.71-5.93-.29-26.68-.8-31.54-.51-4.86-1.95-13.53,6.65-18.43,2.26-1.29,4.08-2.87,5.52-4.5,1.92,6.39,5.73,21.99,1.34,33.71,0,0,8.44-14.28,6.13-33.97,5.72,6.77,7.58,22.35,7.58,22.35-6.27,28-26.41,32.38-26.41,32.38Zm158.68-37.61s-.03-.09-.05-.13c.03.08.05.13.05.13Zm3.82-25c-15.25,1.1-25.57-12.38-25.57-12.38,0,0,1.05,13.61,13.82,18.16,3.18,6.5,6.3,14.77,7.46,17.92-4.41-10.89-17.88-12.41-33.84-15.58-1.1-.26-2.46-.54-4.12-.85-.49-.11-.98-.21-1.48-.32,0,0-1.78-.42-4.32-1.45-5.36-2.4-8.17-6.23-9.64-9.47,2.41.64,5.55.98,9.64.77,14.33-.75,26.48,5.81,26.48,5.81,0,0-8.29-8.31-20.86-12.66-18.55-6.41-17.4-27.17-17.4-27.17l-2.03,14.86c-.53,3.89-1.83,7.64-3.82,11.03-.69,1.72-1.55,3.75-2.5,5.77-2.77-.96-5.01-9.19-12.19-15.32-8.02-6.85,10.54,12.3,4.59,25.71l2.24-.89,1.93-2.87c.44,1.53,3.37,10.15,17.24,24.41,11.25,11.57,5.1,29.15,5.1,29.15,0,0,.59-22.16-23.21-24.55,0,0,9.24,7.03,11.25,14.89,0,0-6.79-8.81-12.66-7.58l-4.15-4.51-14.44-22.99c-.08-.15-.15-.23-.15-.23-1.7-.78-1.47.54-3.35.97-.83.19-9.89-.94-9.89-.94-4.61-1-10.6,3.12-11.03-.03-.43-3.15-5.46-2.41-4.16.54.76,1.73,2.78,4.24,4.33,6.02,1.01,1.16,2.8,1.15,3.8-.01,0,0,1.09-2.05,7.37-2.08,3.17-.02,6.42-.3,8.72.1.02,0,.03,0,.05,0-1.41,2.82-2.96,6.07-6.88,7.15,0,0,18.12,25.06,12.5,44.05,0,0,10.55-20.69-3.44-43.28,0,0,.03,0,.08,0h-.08c6.48,3.09,14.33,11.14,16.57,19.37,4.42,16.23-7.62,31.43-13.36,36.82-5.73,5.39-16.34,16.86-12.53,31.25-.09-.09-.18-.18-.27-.28-1.41-1.5-7.76-9.29-3.26-23.73.92-2.44,2-4.77,3-6.88.09-.18.16-.37.24-.56h0s.02-.05.03-.08c.17-.4.33-.81.47-1.24,12.19-33.03-12.39-46.75-12.39-46.75l8.96,17.64-5.34-4.3c11.83,18.32,6.74,26.81,6.74,26.81-1.83-9.55-6.33-17.17-9.82-21.92-3.71-5.05-7.01-10.39-9.74-16.03l-6.89-14.22,14.52,6.57-24.65-22.33c-2.95-13.14,12.94-29.62,5.42-23.19-8.02,6.85-9.87,16.31-13.19,15.35-2.69-.78-4.94-21.39-5.71-29.23l10.57,3.38-8.68-7.23c-3.64-3.04-6.13-7.23-7.05-11.89l-.22-1.11c-.87-4.39.97-8.87,4.66-11.39,1.73-1.18,3.99-1.27,5.81-.23l4.44,2.55c1.07.61.87,2.21-.32,2.55l-.61.17s2.46,10.36,7.91,11.42c6.77,1.31,6.17-.75,13.92.76l.15-2.89c-2.91-3.43-5.2-5.58-9.18-7.68l6.51,2.45c6.29,2.17,6.06,5.4,5.31,9.41-.12.65,0,1.31.36,1.87l8.71,13.89s-4.92-12.07-4.11-15.54,4.27-9.27,2.11-14.25c-2.16-4.97,1.44-10.4,1.44-10.4l-2.64,1.47c-5.51,3.06-8.95,2.41-15.48.59l-11.46-4.09c-2.22-1.02-4.81-.86-6.88.44l-6.83,4.27c1.92-2.66,4.52-6.23,7.36-10l.99-1.2-.13.06c4.32-5.7,9.08-11.7,12.77-15.62,0,0,19.5-3.08,30.17-15.87-.13,10.31,1.85,26.86,15.33,31.21,7.91,2.55,14.18,3.22,18.51,6.27-.43.11-.86.25-1.27.44l-11.46,4.09c-6.53,1.82-9.97,2.48-15.48-.59l-2.64-1.47s3.6,5.42,1.44,10.4c-2.03,4.68,2.2,11.54,3.39,15.23.18.55.51,1.04,1,1.33.65.38,1.21.1,2.09-1.98,1.6-3.75-.4-7.8,5.89-9.97l6.51-2.45c-3.98,2.1-6.27,4.24-9.18,7.68l.15,2.89c7.75-1.52,7.15.55,13.92-.76,5.45-1.06,7.91-11.42,7.91-11.42l-.61-.17c-1.19-.33-1.39-1.93-.32-2.55l4.09-2.35c1.52,5.48,1.8,13.77.69,26.8l-5.81,4.84,5.53-1.77c-.23,2.38-.5,4.91-.82,7.59,0,0,7.14-11.22,8.36-19.73,0,0,.17,2.17,1.27,4.77,2.57,7.56,9.73,20.92,27.45,15.44,2.22,1.93,4.35,4.26,6.24,7.09,9.98,14.98,24,18,24,18Zm55.58-67.08c1.58-.76,2.36-.72,2.36-.72-.78.46-4.13,2.75-4.99,3.12-6.9,3.31-19.87,8-37.93,5.03,0,0,19.77,7.58,25.87,9.06.96.12,1.48.25,1.48.25-.29,0-.8-.08-1.48-.25-3.31-.43-11.87-.87-22.71,3.64-13.66,5.69-28.98,19.83-48.44,17.11-2.22-1.87-3.95-3.16-5.27-4.04,7.42-4.35,7.67-13.36,7.67-13.36,0,0-4.53.34-8.57-.62,10.03-1.59,13.76-4.98,20.38-12.11,7.82-8.41,20.18-9.06,20.18-9.06,0,0-7.55-5.91-18.35.23-16.74,9.52-25.16,7.15-25.16,7.15,8.88-2.84,16.19-11.01,19.39-15.59,2.36-1.23,4.5-2.71,6.46-4.34,5.89-1.16,16.88-2.02,30.01,3.16,24.86,9.8,43.7,2.4,50.71-.35,0,0-14.93,10.15-35.31,10.32,0,0,11.02,6.88,23.7,1.38Z"/><path d="m128.67,83.58s0,0,0,0c.42.11.21.06,0,0Z"/></svg>