<?xml version="1.0" encoding="UTF-8"?><svg xmlns="http://www.w3.org/2000/svg" viewBox="0 0 844.5 847"><defs><style>.cls-1{font-family:Montserrat-Black, Montserrat;font-size:53px;font-weight:800;}.cls-2{fill:none;stroke:#000;stroke-miterlimit:10;}</style></defs><g id="logotipo"><g><path d="M418.04,53.45c.98,.24,.59,1.45,.98,1.51,.12,.02,.25,.03,.36,.05,.29,.04,.58,.04,.87,0,.11-.01,.24-.03,.36-.05,.39-.06,0-1.27,.98-1.51,.73-.18,1.49,.05,1.73-.22,.44-.5-.63-.92-.63-.92,0,0,.39,.29-1.05,.55-.98,.17-.85,.65-1.08,.82-.03,.02-.09,.04-.16,.06-.38,.1-.78,.1-1.15,0-.07-.02-.13-.04-.16-.06-.23-.18-.1-.65-1.08-.82-1.44-.26-1.05-.55-1.05-.55,0,0-1.07,.42-.63,.92,.24,.27,1,.04,1.73,.22Z"/><path d="M424.24,56.33s.07,.36,.03,.47c-.13,.33-2.08-1.49-2.62-1.22-.46,.24-.82,.4-1.07,.52-.34,.16-.74,.16-1.08,0-.26-.12-.61-.28-1.07-.52-.54-.27-2.5,1.55-2.62,1.22-.04-.1,.03-.47,.03-.47,0,0-.47,.25-.44,.52,.03,.28,.96,.32,.96,.32,0,0,1.69-.92,2.13-.81,.09,.02,.17,.06,.26,.11,0,0,.12,.07,.28,.16,.06,.04,.13,.07,.19,.11,.31,.17,.69,.35,.85,.35,.29,0,1.18-.57,1.28-.62,.09-.05,.18-.09,.26-.11,.44-.11,2.13,.81,2.13,.81,0,0,.93-.04,.96-.32,.03-.28-.44-.52-.44-.52Z"/><path d="M466.31,37.99s-4.26-1.17-7.99,.19c-4.52,1.65-8.88,1.12-11.72-.22-1.81-.85-3.42-1.25-4.35-1.42,1.12-1.38,2.05-2.73,3.23-3.24,2.91-1.25,7.27,.6,7.27,.6-5.91-6.9-14.21-1.41-14.21-1.41,2.08-2.36,7.43-3.47,7.43-3.47-3.92-1.42-7.21-.16-9.29,1.16,1.73-2.83,2.11-6.13,2.11-6.13-.77,2.52-4.36,4.11-4.36,4.11,4.49-4.01,3.45-8.94,3.45-8.94-2.31,4.68-5.96,5.06-8.82,5.13-1.93,.04-2.42,.2-2.54,.3,.12-.44,.68-2.65,.57-6.31-.29-9.08-6.33-12.05-6.33-12.05,3.89,3.82,1.38,11.97,1.38,11.97,.65-2.97-2.24-7.72-2.24-7.72,0,0,.8,5.01-2.52,7.13-3.32,2.13-4.22,5.27-4.22,5.27-.73-1.08-2.79-1.92-5.03-3.3s-2.49-4.78-2.49-4.78c-3.06,4.14-1.93,7.7-1.21,9.16-.06-.02-.12-.03-.19-.05-1.95-.55-5.01-.82-6.99-2.27-2.41-1.77-3.34-6.28-3.34-6.28v.02s0-.02,0-.02c-1.74,6.97,2.95,11.78,2.95,11.78-1.37-.26-3.29-2.85-3.29-2.85,.29,8.23,7.68,9.21,7.68,9.21-2.24,4.38-5.05,3.11-9.16,1.34-4.1-1.77-6.34,1.64-6.34,1.64,3.3-1.62,6.24,1.17,7.29,3.23,1.05,2.06,3.83,4.13,3.83,4.13,0,0,.35,.13-7.57-1.46-7.92-1.59-11.61,5.27-11.61,5.27,3.07-2.9,8.79-1.39,11.11,.94,2.31,2.33,5.31,2.82,5.31,2.82-1.68,.49-4.73-1.35-4.73-1.35,3.15,6.85,10.18,5.39,10.18,5.39-6.27,4.7-2.11,10.14-2.11,10.14-.2-2.87,1.45-5.03,5.67-5.23,1.18-.06,2.27-.4,3.23-.87-.04,.94,.08,2.63,.87,5.44,1.39,4.91-2.32,6.36-2.32,6.36,7.6,.18,8.99-6.58,8.99-6.58,0,0,.86,.55,3.71,4.03,2.49,3.05-.37,5.69,.37,9.21,0,.04,.03,.08,.04,.12,.4,2.34,3.88,3.85,3.88,3.85-2.08-6.04,2.94-7.56,5.1-10.21,2.43-2.97,.51-6.17,.51-6.17,1.92-.04,3.57,4.64,3.57,4.64,.98-4.39-1.82-6-1.82-6,3.77,1.33,2.65,6.62,2.65,6.62,2.46-3.39,1.98-7.7-.4-10.09-2.38-2.39-1.89-4.88-1.89-4.88,1.86,3.33,5.28,3.09,8.78,4.02,3.63,.97,4.82,5.73,4.82,5.73,.39-5.76-1.98-8.43-2.77-9.15,2.61,2.02,6.41,.15,6.41,.15-6.42-.29-6.66-3.02-8.46-5.11,4.42-.27,8.81-4.6,11.72-5.37,2.93-.77,6.21,.7,6.21,.7-2.41-2.79-5.6-2.68-5.6-2.68,4.67-.16,4.97-1.5,7.82-3.38,2.84-1.89,7.78-2.83,7.78-2.83Zm-29.27-6.95c1.38-2.42,6.31-1.83,6.31-1.83,0,0-7.51,1.06-5.9,4.52,0,0,8.29-4.54,12.49-1.22,0,0-4.96-1.63-7.17,1.59-1.85,2.69-4,6.23-7.78,5.09,0,0,0,0,0,0,.08-.28,.16-.57,.22-.86,1.11,.29,2.12-.17,3.2-2.87,.44-1.09,1.39-1.29,1.39-1.29,0,0-1.26-.43-2.31,1.25-1.22,1.96-2.05,1.45-2.16,1.36,0,0,0-.01,0-.02,.88-.57,.99-3.1,.99-3.1-.25,.73-.98,1.29-1.46,1.59-.37-.62-.99-1.17-1.96-1.62,0,0,2.75-.18,4.14-2.6Zm-14.59,4.61c-1.5-1.06-1.63-3.17-1.53-4.51,.08-1.09,.78-2.05,1.81-2.4,1.91-.65,4.35,.3,5.24,2.3,1.19,2.66,3.05,2.37,5.29,4.12l.45,.53c1.32,2.28-1.13,7.97-.66,9.72,.51,1.91,2.78,1.09,2.78,1.09,0,0-.7,2.24-2.45,1.95-2.3-.38-2.09-1.69-3.32-5.26s-4.21-5.52-4.21-5.52c1.43-.54,4.58,1.94,4.58,1.94-3.39-4.28-5.7-2.34-8-3.96Zm5.51-9.92c5.19-.15,7.9-1.57,9.24-4.51,0,0-.86,6.14-4.7,7.6,0,0,3.24,.88,5.11-2.01,0,0-.93,3.4-4.03,4.78-1.32,.59-2.88,.34-4.07-.48-.62-.44-.92-1.16-1.35-1.98-.04-.07-.08-.14-.12-.2,3.13,0,4.44-2.43,4.44-2.43,0,0-1.6,1.68-4.42,.94-2.82-.74-5.42,.55-5.42,.55,0,0,2.34-2.15,5.32-2.24Zm-12.26-4.61c2.7-2.99,4.36-2.46,4.82-7.85,0,0,1.63,5.53,.89,8.61,0,0,3.74-6.12,2.52-11.11,0,0,6.67,9.81-2.43,17.55h0c-.01-.08-.3-1.89-2.3-2.32-.14-.6-.14-1.37,.27-2.22,.95-1.98,.67-4.52,.67-4.52-.37,1.99-1.17,2.91-2.3,4.68-.53,.83-.66,1.55-.66,2.09-.87,.16-1.9,.49-3.14,1.09,0,0-1.03-2.99,1.67-5.98Zm.66,6.07c2.3-.45,4.98,.82,3.64,2.89,0,0-1.9-2.92-6.75,.3,1.01-.43,2.87-1.02,6.14,.66,0,0-1.33,2.79-4.26,3.29-2.93,.5-6.41-.13-7.94,3.51,0,0,1.72-1.64,4.33-1.69l.86-.07c-4.43,3.52-4.2,3.87-5.69,7.93-1.41,3.84-4.27,1.62-4.57,1.37,1.44-.42,2.63-1.38,2.49-3.42-.34-4.91,.24-5.89,1.96-6.91,.65-.37,1.16-.64,1.58-.88,1.18-.66,1.68-1.05,2.8-2.64,0,0,2.16-3.68,5.41-4.33Zm-11.36,22.11c-1.19,.28-3.08,.61-4.47,.29,0,0,2.03-.35,3.33-1,.36,.27,.74,.51,1.15,.71Zm.43-32.56s-.45,3.32,4.13,4.92c.03,.01,.06,.02,.09,.04,1.88,.8,2.93,2.84,2.45,4.83-.31,1.29-.35,2.31-.35,2.31,0,0,0-.01-.01-.04-.14-.48-.4-.91-.73-1.29-.77-.99-2.28-2.31-5.17-3.13-.1-.03-.05-.01,0,0-1.85-2.69-.4-7.64-.4-7.64Zm-4.38,14.88c-4.68,.37-6.87-5.55-6.87-5.55,2.76,4.89,5.41,2.43,5.41,2.43-4.21-1.52-5.36-9.54-5.36-9.54,1.64,3.87,3.18,5.93,7.12,6.11,7.82,.36,8,4.62,8,4.62-.65-.32-1.35-.43-2.05-.41,0,0,0,0,0,0,0,0,0,0-.01,0-.11,0-.23,.01-.34,.02-1.09,.06-4.41,.11-5.61-1.35,0,0,.62,2.16,2.59,2.46-.02,.02-.05,.03-.07,.05-.82,.63-1.79,1.06-2.83,1.15Zm-7.6,6.58c-1.29-2.19-3.31-2.64-3.31-2.64,0,0,2.46,.17,5.25,1.9,2.79,1.73,6.44-1.93,6.67-3.8s5.57-4.85,7.51-2.29c0,0,0,.63-.48,1.38-2.79-.58-5.09,1.68-5.09,1.68,2.17-.97,3.33-.71,3.83-.47-.36,.23-.79,.44-1.32,.62-3.07,1.04-4.93,2.9-4.27,6.98l.02,.02c-.45,.83-1.17,1.52-2.4,1.81h-.02c-3.13,.43-5.32-3.37-6.39-5.19Zm4.61,16.54c-4.45-.29-5.63-2.18-5.63-2.18,0,0,3.92,.4,5.2-1.32,0,0-4.39-.46-6.88-2.13-2.49-1.68-3.3-2.74-4.85-3.31,0,0,3.52,0,6.35,1.36,0,0-5.22-3.73-9.85-2.63,0,0,3.7-2.02,8.35-.78,4.65,1.25,8.28,2.32,10.56,2.2,0,0,.65,.95,1.65,1.9-1.24,.49-4.19,1.27-7.24-.68,0,0,4.26,5.17,9.26,3.32-.58,1.64-2.26,4.57-6.92,4.26Zm3.35,4.86c-3.27,.75-4.33,3.03-4.33,3.03-.48-6.74,4.73-6.95,7.26-7.89,1.54-.57,2.76-2.1,3.47-3.2,.2,.48,.59,1.39,.99,2.3,0,.14-.01,.27-.02,.39-.08,1.1-.46,2.16-1.13,3.04-1.58,2.05-3.56,1.71-6.24,2.33Zm6.24,10.6c1.69-1.3-.06-5.85-.18-6.92-.11-1.07-.43-2.97,1.46-4.04,.5-.28,.89-.63,1.21-.99,.42,1.4,1.26,4.82,.29,7.39,0,0,1.85-3.13,1.34-7.45,1.25,1.48,1.66,4.9,1.66,4.9-1.37,6.14-5.79,7.1-5.79,7.1Zm34.81-8.25s0-.02-.01-.03c0,.02,.01,.03,.01,.03Zm.84-5.48c-3.35,.24-5.61-2.72-5.61-2.72,0,0,.23,2.99,3.03,3.98,.7,1.43,1.38,3.24,1.64,3.93-.97-2.39-3.92-2.72-7.42-3.42-.24-.06-.54-.12-.9-.19-.11-.02-.22-.05-.32-.07,0,0-.39-.09-.95-.32-1.17-.53-1.79-1.37-2.11-2.08,.53,.14,1.22,.21,2.11,.17,3.14-.16,5.81,1.27,5.81,1.27,0,0-1.82-1.82-4.58-2.78-4.07-1.41-3.82-5.96-3.82-5.96l-.44,3.26c-.12,.85-.4,1.68-.84,2.42-.15,.38-.34,.82-.55,1.27-.61-.21-1.1-2.02-2.67-3.36-1.76-1.5,2.31,2.7,1.01,5.64l.49-.19,.42-.63c.1,.33,.74,2.23,3.78,5.35,2.47,2.54,1.12,6.39,1.12,6.39,0,0,.13-4.86-5.09-5.38,0,0,2.03,1.54,2.47,3.27,0,0-1.49-1.93-2.78-1.66l-.91-.99-3.17-5.04s-.03-.05-.03-.05c-.37-.17-.32,.12-.73,.21-.18,.04-2.17-.21-2.17-.21-1.01-.22-2.33,.68-2.42,0-.09-.69-1.2-.53-.91,.12,.17,.38,.61,.93,.95,1.32,.22,.25,.62,.25,.83,0,0,0,.24-.45,1.62-.46,.7,0,1.41-.07,1.91,.02,0,0,0,0,.01,0-.31,.62-.65,1.33-1.51,1.57,0,0,3.97,5.5,2.74,9.66,0,0,2.31-4.54-.75-9.49,0,0,0,0,.02,0h-.02c1.42,.68,3.14,2.44,3.63,4.25,.97,3.56-1.67,6.89-2.93,8.08-1.26,1.18-3.58,3.7-2.75,6.85-.02-.02-.04-.04-.06-.06-.31-.33-1.7-2.04-.71-5.21,.2-.54,.44-1.05,.66-1.51,.02-.04,.04-.08,.05-.12h0s0-.01,0-.02c.04-.09,.07-.18,.1-.27,2.67-7.24-2.72-10.25-2.72-10.25l1.97,3.87-1.17-.94c2.59,4.02,1.48,5.88,1.48,5.88-.4-2.1-1.39-3.77-2.15-4.81-.81-1.11-1.54-2.28-2.14-3.52l-1.51-3.12,3.18,1.44-5.41-4.9c-.65-2.88,2.84-6.5,1.19-5.09-1.76,1.5-2.17,3.58-2.89,3.37-.59-.17-1.08-4.69-1.25-6.41l2.32,.74-1.9-1.59c-.8-.67-1.35-1.59-1.55-2.61l-.05-.24c-.19-.96,.21-1.95,1.02-2.5,.38-.26,.87-.28,1.27-.05l.97,.56c.23,.13,.19,.49-.07,.56l-.13,.04s.54,2.27,1.74,2.5c1.49,.29,1.35-.17,3.05,.17l.03-.63c-.64-.75-1.14-1.22-2.01-1.68l1.43,.54c1.38,.48,1.33,1.19,1.17,2.07-.03,.14,0,.29,.08,.41l1.91,3.05s-1.08-2.65-.9-3.41,.94-2.03,.46-3.12c-.47-1.09,.32-2.28,.32-2.28l-.58,.32c-1.21,.67-1.96,.53-3.39,.13l-2.51-.9c-.49-.22-1.05-.19-1.51,.1l-1.5,.94c.42-.58,.99-1.37,1.61-2.19l.22-.26h-.03c.95-1.24,1.99-2.55,2.8-3.41,0,0,4.28-.68,6.62-3.48-.03,2.26,.41,5.89,3.36,6.85,1.73,.56,3.11,.71,4.06,1.37-.1,.02-.19,.06-.28,.1l-2.51,.9c-1.43,.4-2.19,.54-3.39-.13l-.58-.32s.79,1.19,.32,2.28c-.45,1.03,.48,2.53,.74,3.34,.04,.12,.11,.23,.22,.29,.14,.08,.26,.02,.46-.43,.35-.82-.09-1.71,1.29-2.19l1.43-.54c-.87,.46-1.37,.93-2.01,1.68l.03,.63c1.7-.33,1.57,.12,3.05-.17,1.2-.23,1.74-2.5,1.74-2.5l-.13-.04c-.26-.07-.3-.42-.07-.56l.9-.51c.33,1.2,.39,3.02,.15,5.88l-1.28,1.06,1.21-.39c-.05,.52-.11,1.08-.18,1.67,0,0,1.57-2.46,1.83-4.33,0,0,.04,.48,.28,1.05,.56,1.66,2.13,4.59,6.02,3.39,.49,.42,.96,.93,1.37,1.56,2.19,3.28,5.26,3.95,5.26,3.95Zm12.19-14.71c.35-.17,.52-.16,.52-.16-.17,.1-.91,.6-1.09,.69-1.51,.73-4.36,1.76-8.32,1.1,0,0,4.34,1.66,5.67,1.99,.21,.03,.33,.05,.33,.05-.06,0-.18-.02-.33-.05-.73-.09-2.6-.19-4.98,.8-3,1.25-6.36,4.35-10.63,3.75-.49-.41-.87-.69-1.16-.89,1.63-.96,1.68-2.93,1.68-2.93,0,0-.99,.08-1.88-.14,2.2-.35,3.02-1.09,4.47-2.66,1.72-1.84,4.43-1.99,4.43-1.99,0,0-1.66-1.3-4.02,.05-3.67,2.09-5.52,1.57-5.52,1.57,1.95-.62,3.55-2.42,4.25-3.42,.52-.27,.99-.59,1.42-.95,1.29-.25,3.7-.44,6.58,.69,5.45,2.15,9.59,.53,11.12-.08,0,0-3.27,2.23-7.74,2.26,0,0,2.42,1.51,5.2,.3Z"/><path d="M405.83,24.4s0,0,0,0c.09,.02,.05,.01,0,0Z"/></g><g><path d="M737.78,230.79c.24,.98-1.01,1.19-.89,1.56,.04,.12,.08,.24,.12,.34,.1,.27,.24,.53,.4,.77,.06,.09,.14,.2,.21,.3,.23,.32,1.12-.59,1.79,.17,.49,.56,.64,1.34,.99,1.43,.64,.16,.52-.98,.52-.98,0,0-.08,.48-.97-.68-.61-.79-.96-.45-1.23-.58-.03-.01-.08-.06-.13-.11-.27-.29-.45-.64-.53-1.02-.02-.07-.02-.14-.02-.17,.05-.29,.53-.39,.23-1.34-.44-1.39,0-1.18,0-1.18,0,0-.87-.75-1.1-.13-.13,.34,.42,.91,.6,1.63Z"/><path d="M738.09,237.62s-.29,.23-.4,.24c-.35,.04,.36-2.54-.13-2.89-.4-.28-.7-.51-.91-.68-.33-.26-.52-.63-.55-1.05-.01-.28-.03-.65-.03-1.14,0-.61-2.53-1.5-2.29-1.76,.07-.08,.42-.19,.42-.19,0,0-.43-.3-.67-.15-.23,.15,.16,.99,.16,.99,0,0,1.6,1.07,1.71,1.52,.02,.09,.03,.18,.03,.28,0,0,0,.14-.01,.33,0,.07,0,.14,0,.22,0,.35,0,.77,.08,.91,.13,.26,1.05,.79,1.14,.85,.08,.06,.16,.12,.22,.19,.3,.34,.26,2.27,.26,2.27,0,0,.46,.81,.72,.7,.26-.1,.26-.63,.26-.63Z"/><path d="M773.41,266.02c.09,.11,.26,.02,.22-.12-.36-1.26-1.43-4.34-3.71-6.43-3.55-3.24-5.09-7.36-5.22-10.5-.07-1.86-.42-3.38-.69-4.32-.03-.09,.06-.17,.15-.16,1.66,.33,3.19,.55,4.15,1.33,1.95,1.59,2.59,4.89,2.77,6.19,.02,.13,.21,.15,.26,.02,2.84-8.11-5.51-12.73-5.51-12.73,2.52,.62,5.3,3.6,6.21,4.63,.09,.1,.25,.01,.23-.12-.63-3.58-2.86-5.74-4.82-6.98-.11-.07-.06-.24,.08-.23,2,.05,3.87-.37,4.95-.68,.14-.04,.12-.25-.03-.26-2.32-.15-4.67-2.03-4.67-2.03,4.68,1.77,8.16-.14,9.2-.84,.11-.07,.05-.23-.08-.23-4.92-.05-6.87-3.02-8.22-5.46-.65-1.19-1.03-1.72-1.24-1.95-.07-.07-.05-.19,.05-.22,.77-.19,2.82-.79,5.61-2.35,6.2-3.48,7.45-8.36,7.71-10.32,.02-.15-.18-.2-.24-.07-1.58,3.37-6.07,5-8.33,5.63-.15,.04-.23-.15-.1-.23,1.87-1.14,3.55-3.44,4.24-4.47,.08-.12-.05-.26-.17-.18-1.19,.73-4.29,2.27-6.98,.72-2.87-1.65-5.59-1.45-6.39-1.34-.1,.01-.17-.08-.13-.18,.49-1.19,.32-3.3,.51-5.77,.16-2.13,2.09-3.71,2.81-4.23,.1-.07,.05-.22-.07-.24-4.59-.6-7.11,1.65-8.17,2.98l-.23-.05c-.43-1.98-1.56-4.77-1.19-7.16,.45-2.95,4.02-5.86,4.02-5.86h-.02s.02,0,.02,0c-6.99,1.68-9.08,8.06-9.08,8.06-.31-1.04,.47-3.02,.84-3.85,.05-.12-.09-.23-.2-.16-6.08,3.71-4.62,9.62-4.3,10.68,.03,.08-.05,.17-.13,.17-4.73-.04-4.91-3.1-5.23-7.5-.25-3.47-2.76-4.49-3.87-4.77-.13-.03-.21,.13-.11,.23,2.45,2.22,1.37,5.84,.09,7.63-1.03,1.45-1.6,3.81-1.8,4.82-.03,.13-.21,.14-.25,.02-.22-.71-.76-2.5-2.04-6.92-1.81-6.25-7.22-7.54-9.25-7.8-.14-.02-.2,.17-.07,.24,3.43,1.78,4.52,7.05,3.58,9.98-1,3.13-.05,6.01-.05,6.01-.95-1-1.02-3.42-1-4.4,0-.13-.17-.18-.24-.08-3.53,4.9-1,9.47-.1,10.79,.07,.11-.05,.23-.17,.18-5.66-2.46-8.53,1.34-9.31,2.62-.07,.11,.06,.23,.18,.17,2.34-1.22,4.85-.61,6.86,2.84,.56,.96,1.3,1.73,2.1,2.34,.08,.06,.07,.17-.02,.21-.87,.43-2.26,1.33-4.24,3.2-2.88,2.71-5.33,1.75-6.29,1.17-.11-.07-.24,.07-.18,.18,3.07,5.62,8.48,4.74,9.55,4.5,.09-.02,.17,.06,.15,.15-.1,.46-.47,1.8-1.83,4.95-1.56,3.62-5.22,2.3-8,4.58-.03,.03-.06,.06-.09,.09-1.57,1.19-1.65,4-1.64,4.92,0,.12,.14,.16,.22,.08,4.3-4.3,7.91-.66,11.2,.03,3.19,.67,5.08-1.53,5.58-2.2,.06-.08,.2-.07,.23,.03,.55,1.76-2.57,5.08-2.57,5.08,4.35-1.16,4.48-4.38,4.48-4.38,.45,3.15-2.76,4.71-4.09,5.22-.13,.05-.1,.25,.03,.26,3.89,.31,7.2-2.02,8.18-5.08,.78-2.46,2.38-3.45,3.1-3.79,.12-.05,.22,.08,.15,.19-1.77,3.06-.07,5.9,.69,9.31,.62,2.8-1.37,5.35-2.35,6.41-.1,.11,.03,.27,.16,.21,3.75-1.82,5.26-4.13,5.86-5.51,.06-.13,.24-.08,.24,.06,.11,2.79,2.89,4.84,2.89,4.84-2.63-5.67-.53-7.21,.54-9.64,.04-.09,.16-.11,.22-.02,2.37,3.66,8.06,5.53,10.05,7.72,2.04,2.24,2.25,5.83,2.25,5.83,1.36-3.42-.2-6.21-.2-6.21,2.3,4.07,3.62,3.72,6.61,5.37,2.37,1.31,4.81,4.06,5.72,5.14Zm-6.98-28.72c2.78,.11,4.54,4.76,4.54,4.76,0,0-4.29-6-6.63-3.27-.05,.06-.04,.16,.02,.2,.93,.65,6.95,5.04,6.82,9.65,0,.15-.22,.18-.26,.04-.4-1.45-1.6-4.51-4.55-4.87-3.24-.4-7.38-.67-8.11-4.55,0,0,0,0,0,0,.29-.06,.58-.12,.87-.2,.25,1.12,1.13,1.8,4.02,1.52,1.17-.12,1.78,.64,1.78,.64,0,0-.2-1.32-2.17-1.47-2.3-.18-2.23-1.15-2.2-1.29,0,0,.01,0,.02-.01,.91,.51,3.21-.55,3.21-.55-.71,.1-1.48-.23-1.98-.5-.06-.03-.08-.11-.04-.17,.29-.52,.46-1.16,.47-1.96,0-.12,.15-.19,.23-.09,.51,.65,1.85,2.06,3.98,2.14Zm-10.83-10.81c.25-1.82,2.07-2.91,3.3-3.44,1-.43,2.18-.25,2.97,.5,1.46,1.39,1.74,4,.38,5.72-1.81,2.29-.7,3.8-1.21,6.6l-.26,.65c-1.41,2.22-7.59,2.68-8.92,3.9-1.45,1.33,.31,2.97,.31,2.97,0,0-2.31,.41-2.86-1.28-.73-2.22,.54-2.64,3.13-5.37s2.95-6.28,2.95-6.28c1.14,1.02,.4,4.96,.4,4.96,2.23-4.98-.56-6.13-.18-8.92Zm11.34,.3c2.3,4.12,4.58,5.95,7.4,6.11,.15,0,.17,.21,.03,.25-1.65,.43-5.37,1.13-7.75-.64-.1-.08-.25,.02-.2,.14,.28,.79,1.13,2.5,3.19,3.05,.14,.04,.14,.24-.01,.25-1.19,.08-3.41,0-5.25-1.47-1.13-.9-1.64-2.4-1.45-3.83,.1-.75,.6-1.35,1.13-2.11,.05-.07,.09-.13,.13-.2,1.44,2.77,4.21,2.82,4.21,2.82,0,0-2.23-.65-2.87-3.49-.64-2.84-2.99-4.55-2.99-4.55,0,0,2.99,1.09,4.44,3.69Zm-1.58-13c3.72,.96,4.16,2.58,8.54,.91,.13-.05,.24,.12,.14,.22-1.09,.98-3.72,3.2-6,4.06-.13,.05-.1,.25,.04,.25,1.82,.02,6.55-.18,9.68-2.46,.12-.09,.27,.05,.19,.17-1.44,2.19-6.91,9.14-16.3,5.32h0c.06-.05,1.49-1.12,1.02-3.03-.01-.05,0-.1,.04-.13,.46-.38,1.13-.71,2.04-.73,2.2-.07,4.32-1.49,4.32-1.49-1.93,.59-3.12,.3-5.21,.12-.92-.08-1.6,.1-2.07,.33-.05,.03-.11,.01-.15-.03-.51-.65-1.24-1.35-2.23-2.11-.07-.05-.07-.15-.01-.2,.49-.44,2.58-2.05,5.96-1.17Zm-5.08,3.39c1.47,1.83,1.57,4.8-.88,4.56,0,0,1.71-3.04-3.38-5.85,.84,.68,2.19,2.04,2.25,5.61,0,.07-.06,.14-.13,.14-.61-.01-3.17-.18-4.75-2.26-1.8-2.37-2.84-5.75-6.78-5.43,0,0,2.25,.76,3.5,3.06l.46,.72c-5.17-2.3-5.37-1.94-9.66-1.39-3.6,.46-3.49-2.29-3.37-3.18,.01-.1,.14-.14,.22-.07,1.02,.97,2.36,1.46,4.01,.46,4.2-2.56,5.33-2.51,7.03-1.45,.63,.41,1.1,.73,1.51,.99,1.13,.74,1.71,1.01,3.64,1.27,0,0,4.27,.22,6.34,2.8Zm-24.86,.13c-.8-.93-1.97-2.45-2.32-3.83,0,0,1.21,1.59,2.36,2.45,.04,.03,.05,.07,.05,.12-.06,.42-.1,.85-.09,1.27Zm28.2-14.43c.14-.04,.23,.14,.11,.23-.88,.68-2.16,2.25-1.69,5.48,0,.03,0,.06,0,.09,.16,2.04-1.16,3.91-3.15,4.41-1.29,.32-2.21,.75-2.21,.75,0,0,0,0,.03-.03,.36-.35,.62-.77,.8-1.24,.52-1.14,1-3.09,.39-6.03-.02-.1,0-.05,0,0,1.14-2.13,4.2-3.24,5.72-3.67Zm-14.34,2.77c-1.61-2.56-.41-5.42,.64-7.12,.08-.14,.29-.03,.23,.12-1.13,2.77,.44,3.88,1.02,4.19,.09,.05,.19-.03,.18-.13-.27-3.35,3.41-6.82,5.14-8.26,.12-.1,.27,.06,.18,.18-2.16,2.81-2.95,5.01-1.44,8.27,2.83,6.11,.49,8.54-.22,9.1-.08,.06-.19,0-.2-.1-.05-.64-.27-1.23-.57-1.77,0,0,0,0,0,0,0,0,0,0,0,0-.06-.1-.11-.19-.18-.29-.55-.94-2.13-3.86-1.39-5.6,0,0-1.63,1.54-.99,3.43-.03-.01-.05-.03-.08-.04-.94-.44-1.77-1.1-2.32-1.98Zm-9.34-3.71c1.35-2.15,.82-4.16,.82-4.16,0,0,.98,2.26,.74,5.54-.24,3.27,4.68,4.82,6.45,4.16s6.81,2.67,5.52,5.56c-.01,.03-.04,.06-.07,.07-.15,.07-.66,.26-1.4,.19-.77-2.74-3.84-3.74-3.84-3.74,1.86,1.47,2.17,2.62,2.18,3.18-.37-.21-.76-.5-1.16-.89-2.34-2.24-4.84-3.03-8.17-.57v.03c-.95-.02-1.9-.33-2.72-1.29h-.02c-1.81-2.59,.55-6.29,1.66-8.08Zm-12.55,11.73c-1.4-3.18-1.02-5.05-.79-5.72,.04-.11,.19-.11,.24,0,.37,.82,1.57,3.21,3.21,3.67,.1,.03,.19-.08,.16-.18-.33-.91-1.49-4.3-1.2-6.86,.29-2.57,.75-3.82,.74-5.17,0-.14,.19-.19,.24-.06,.47,1.06,1.36,3.35,1.44,5.65,0,0,.78-5.47-1.6-9.14-.08-.13,.07-.27,.19-.17,1.1,.99,3.02,3.12,3.75,6.41,1.03,4.66,1.75,8.34,2.9,10.33,.02,.04,.02,.07,0,.11-.11,.21-.51,1.03-.83,2.09-.03,.09-.14,.13-.21,.07-.96-.88-2.59-2.8-2.62-5.76,0-.15-.21-.18-.25-.04-.54,1.75-1.43,5.96,1.41,8.75,.08,.08,.04,.21-.06,.22-1.78,.19-4.93-.14-6.71-4.2Zm-2.76,5.21c-1.63-1.91-3.45-2.33-4.26-2.42-.12-.01-.15-.19-.05-.25,5.49-3.1,8.01,1.26,9.96,3.03,1.15,1.04,2.91,1.43,4.21,1.58,.1,.01,.15,.13,.08,.21-.35,.42-.89,1.09-1.43,1.76-.12,.06-.24,.11-.36,.16-1.01,.44-2.13,.59-3.21,.4-2.55-.46-3.16-2.37-4.95-4.46Zm-6.17,10.77c-.09-.08-.02-.23,.1-.22,1.95,.25,4.78-2.93,5.61-3.48,.89-.59,2.44-1.75,4.26-.57,.48,.31,.97,.5,1.43,.62-1.05,1.02-3.7,3.34-6.42,3.67,0,0,3.63,.2,7.23-2.25-.71,1.72-3.33,3.57-3.56,3.73-.01,0-.02,.01-.04,.02-4.86,1.28-7.67-.69-8.6-1.52Zm23.04,26.72s.01-.01,.02-.02c-.01,.01-.02,.02-.02,.02Zm5.25-1.79c-1.76-2.86-.18-6.23-.18-6.23,0,0-2.51,1.56-2.14,4.48,0,.03,0,.06-.02,.09-.58,.78-1.28,1.62-1.85,2.28-.1,.11-.26,0-.21-.14,.67-1.85-.2-4.24-1.03-7.08-.06-.24-.14-.53-.25-.89-.03-.11-.06-.21-.09-.32,0,0-.1-.39-.16-.99-.08-1.29,.39-2.22,.87-2.83,.12,.53,.37,1.18,.83,1.95,1.6,2.71,1.55,5.74,1.55,5.74,0,0,.78-2.45,.35-5.34-.63-4.26,3.52-6.14,3.52-6.14l-3.1,1.11c-.81,.29-1.67,.42-2.53,.37-.4,.04-.89,.08-1.37,.1-.09-.64,1.28-1.91,1.75-3.92,.52-2.25-1.32,3.3-4.54,3.5l.4,.35,.75,.08c-.25,.24-1.63,1.68-3,5.83-.81,2.45-3.17,3.42-4.4,3.77-.14,.04-.23-.15-.11-.23,1.14-.83,3.23-2.94,1.77-6.59,0,0-.43,2.51-1.76,3.7,0,0,.99-2.14,.23-3.18-.02-.03-.03-.07-.02-.11l.43-1.19s0-.01,.01-.02l3.01-5.13s.03-.05,.03-.05c-.02-.41-.25-.23-.53-.55-.12-.14-.82-2.02-.82-2.02-.27-1-1.68-1.75-1.11-2.15,.57-.4-.08-1.31-.53-.75-.26,.32-.54,.97-.73,1.45-.12,.31,.06,.66,.39,.74,0,0,.51,0,1.15,1.22,.32,.62,.71,1.22,.86,1.71,0,0,0,0,0,.01-.65,0-1.38,.04-1.96-.49-.06-.06-.16-.05-.2,.02-.49,.92-3.36,6-7.23,6.75,0,0,5.09-.04,8.07-5.05,0,0,0,0,0,.02v-.02c.05,1.57-.73,3.92-2.1,5.19-2.71,2.5-6.89,1.7-8.52,1.13-1.63-.57-4.93-1.47-7.35,.73,0-.03,.02-.05,.03-.08,.15-.43,1.02-2.45,4.29-3.04,.57-.07,1.13-.09,1.64-.11,.04,0,.09,0,.13,0h0s.01,0,.02,0c.1,0,.19-.02,.29-.03,7.66-.97,7.84-7.15,7.84-7.15l-2.52,3.53,.3-1.47c-2.37,4.16-4.53,4.03-4.53,4.03,1.64-1.3,2.65-2.9,3.23-4.05,.63-1.26,1.34-2.48,2.18-3.6l1.85-2.48c.07-.1,.23-.05,.23,.07l.17,3.13,1.84-7.01s.02-.06,.05-.07c2.27-1.86,7.03-.46,5.03-1.27-2.14-.87-4.17-.27-4.32-1.01-.12-.58,3.4-2.95,4.95-3.97,.08-.05,.18,0,.19,.09l.38,2.2,.52-2.38c.23-1.05,.81-1.98,1.64-2.65l.16-.13c.73-.58,1.72-.7,2.56-.31,.49,.22,.78,.73,.76,1.26l-.04,1.03c-.01,.27-.34,.39-.53,.2l-.1-.1s-1.77,1.53-1.42,2.7c.43,1.45,.77,1.12,1.26,2.79l.58-.26c.37-.91,.56-1.58,.56-2.56l.18,1.52c.21,1.42-.41,1.71-1.24,1.97-.17,.05-.31,.17-.4,.32l-1.79,3.06s1.85-2.18,2.61-2.37,2.24-.11,2.99-1.03c.75-.92,2.17-.77,2.17-.77l-.55-.36c-1.15-.76-1.38-1.5-1.68-2.95l-.36-2.64c-.03-.54-.32-1.02-.78-1.29l-1.52-.9c.71,.1,1.67,.25,2.69,.42l.33,.07-.02-.02c1.53,.26,3.16,.57,4.29,.89,.03,0,.05,.02,.07,.04,.26,.34,2.59,3.29,5.8,4.15,.11,.03,.14,.17,.03,.23-2,1.06-4.72,3.07-4.23,5.99,.3,1.8,.81,3.09,.66,4.24-.06-.07-.14-.14-.22-.2l-1.96-1.81c-1.02-1.09-1.49-1.69-1.45-3.07l.02-.66s-.69,1.25-1.88,1.33c-1.12,.08-2.02,1.6-2.62,2.2-.09,.09-.15,.2-.16,.33,0,.16,.1,.25,.6,.21,.89-.07,1.48-.87,2.54,.14l1.14,1.02c-.81-.56-1.46-.79-2.42-1.01l-.55,.32c1.08,1.35,.62,1.45,1.56,2.63,.76,.95,3.02,.38,3.02,.38l-.03-.14c-.06-.27,.24-.47,.46-.32l.87,.56c-.91,.85-2.48,1.73-5.09,2.83-.03,.01-.07,.01-.1,0l-1.48-.62,.9,.9c-.49,.2-1.01,.4-1.56,.61,0,0,2.91,.25,4.69-.37,0,0-.41,.25-.8,.73-1.2,1.26-3.06,3.98-.28,6.85,.03,.03,.05,.08,.04,.12-.15,.61-.38,1.23-.73,1.86-1.9,3.46-1.07,6.49-1.07,6.49Zm18.68,4.02c.31,.23,.38,.39,.38,.39-.17-.11-.95-.53-1.11-.65-1.22-.91-3.16-2.68-4.44-5.84-.06-.14-.27-.09-.25,.06,.18,1.45,.5,3.94,.73,4.86,.07,.2,.1,.31,.1,.31-.03-.06-.07-.17-.1-.31-.25-.69-1.03-2.4-3.01-4.05-2.48-2.07-6.77-3.62-8.22-7.65,0-.02-.01-.05,0-.08,.13-.6,.21-1.05,.24-1.39,1.33,.84,2.8,.37,3.24,.2,.07-.03,.1-.11,.06-.18-.15-.27-.5-.92-.67-1.61,1.33,1.79,2.36,2.17,4.42,2.74,2.43,.67,3.81,3.01,3.81,3.01,0,0,.38-2.07-1.9-3.55-2.43-1.57-3.38-2.94-3.73-3.66-.06-.13,.09-.24,.21-.15,1.44,1.17,3.45,1.68,4.56,1.82,.02,0,.03,0,.05,.02,.46,.32,.95,.58,1.45,.79,.02,0,.04,.02,.05,.04,.82,1.04,2.09,3.08,2.41,6.13,.61,5.83,3.96,8.75,5.2,9.83,0,0-3.49-1.88-5.58-5.82,0,0-.22,2.84,2.13,4.75Z"/><path d="M757.91,206.55s0,0,0,0c.02,.09,.01,.05,0,0Z"/></g><g><path d="M745.69,600.62c-.72,.71-1.54-.27-1.8,.03-.08,.09-.16,.19-.23,.28-.18,.23-.34,.47-.46,.73-.05,.1-.1,.22-.15,.33-.16,.36,1.08,.67,.76,1.63-.23,.71-.83,1.24-.73,1.58,.19,.64,1.11-.05,1.11-.05,0,0-.45,.17,.09-1.18,.37-.92-.1-1.06-.13-1.35,0-.03,.01-.09,.03-.17,.11-.37,.32-.71,.61-.98,.06-.05,.11-.09,.14-.1,.27-.1,.61,.25,1.27-.48,.98-1.08,1.02-.6,1.02-.6,0,0,.21-1.13-.45-1.02-.35,.06-.57,.83-1.1,1.35Z"/><path d="M739.97,604.35s-.34-.14-.41-.22c-.21-.28,2.37-.98,2.42-1.58,.05-.52,.09-.91,.13-1.19,.05-.37,.26-.71,.57-.92,.23-.16,.56-.37,1.01-.64,.52-.31,0-2.94,.35-2.87,.11,.02,.38,.27,.38,.27,0,0,.04-.53-.21-.65-.25-.12-.77,.64-.77,.64,0,0-.11,1.92-.44,2.24-.06,.06-.14,.12-.23,.17,0,0-.13,.07-.29,.16-.06,.03-.13,.07-.19,.11-.31,.18-.66,.4-.74,.53-.16,.24-.15,1.3-.15,1.41,0,.1-.02,.2-.05,.28-.14,.43-1.82,1.38-1.82,1.38,0,0-.46,.81-.24,.98,.22,.17,.68-.1,.68-.1Z"/><path d="M733.26,649.76s3.25-2.99,4.06-6.88c.99-4.71,3.75-8.13,6.39-9.83,1.68-1.09,2.87-2.24,3.51-2.94,.58,1.68,1.23,3.18,1.04,4.46-.47,3.13-4.36,5.86-4.36,5.86,8.98-1.36,8.71-11.31,8.71-11.31,.9,3.01-.98,8.14-.98,8.14,3.28-2.58,3.95-6.03,3.93-8.5,1.49,2.96,4.09,5.03,4.09,5.03-1.73-1.99-1.18-5.87-1.18-5.87,1.03,5.93,5.76,7.66,5.76,7.66-2.75-4.44-1.14-7.74,.32-10.2,.99-1.67,1.11-2.16,1.08-2.31,.31,.33,1.89,1.98,5.05,3.82,7.86,4.56,13.58,1.01,13.58,1.01-5.3,1.28-10.89-5.16-10.89-5.16,2.18,2.13,7.73,2.19,7.73,2.19,0,0-4.67-1.97-4.72-5.91-.04-3.95-2.24-6.37-2.24-6.37,1.3-.05,3.1-1.35,5.46-2.52s5.37,.41,5.37,.41c-1.89-4.79-5.51-5.71-7.13-5.87,.05-.04,.09-.09,.14-.13,1.5-1.37,3.34-3.82,5.62-4.73,2.77-1.11,7.09,.48,7.09,.48h-.02s.02,0,.02,0c-5-5.17-11.56-3.73-11.56-3.73,.94-1.02,4.16-1.28,4.16-1.28-7.13-4.11-11.88,1.65-11.88,1.65-2.53-4.22,.04-5.93,3.71-8.48,3.67-2.55,1.96-6.25,1.96-6.25-.36,3.66-4.3,4.67-6.6,4.47-2.3-.2-5.53,1.07-5.53,1.07,0,0-.29,.23,5.25-5.65,5.54-5.89,1.67-12.64,1.67-12.64,.84,4.14-3.47,8.2-6.67,8.93-3.2,.73-5.2,3.01-5.2,3.01,.47-1.68,3.65-3.3,3.65-3.3-7.48-.96-9.96,5.79-9.96,5.79-.67-7.8-7.49-7.15-7.49-7.15,2.54,1.35,3.5,3.89,1.44,7.57-.58,1.03-.86,2.14-.98,3.2-.77-.53-2.27-1.32-5.08-2.14-4.9-1.42-4.17-5.34-4.17-5.34-4.17,6.36,.83,11.11,.83,11.11,0,0-.92,.44-5.38,1.01-3.91,.5-4.63-3.32-8.01-4.56-.04-.01-.08-.02-.13-.03-2.2-.9-5.32,1.25-5.32,1.25,6.23,1.43,4.86,6.49,5.97,9.73,1.24,3.63,4.97,3.7,4.97,3.7-.98,1.65-5.83,.57-5.83,.57,3.21,3.16,6.05,1.63,6.05,1.63-3.12,2.49-7.02-1.25-7.02-1.25,1.58,3.88,5.48,5.75,8.78,5,3.29-.76,5.14,.98,5.14,.98-3.81-.19-5.41,2.85-8.06,5.32-2.75,2.57-7.42,1.06-7.42,1.06,4.68,3.38,8.2,2.78,9.23,2.49-3.09,1.15-3.52,5.36-3.52,5.36,3.65-5.3,6.09-4.06,8.81-4.47-2.11,3.9-.76,9.91-1.65,12.79-.9,2.89-3.88,4.9-3.88,4.9,3.64-.57,5.24-3.33,5.24-3.33-2.34,4.05-1.36,5.01-1.26,8.42,.1,3.41-1.72,8.09-1.72,8.09Zm21.38-21.16c1.32,2.45-1.79,6.32-1.79,6.32,0,0,3.07-6.93-.71-7.4,0,0-.54,9.43-5.57,11.25,0,0,4-3.34,2.44-6.93-1.31-2.99-3.17-6.69-.2-9.3,0,0,0,0,0,0,.2,.22,.4,.44,.62,.64-.83,.78-.98,1.89,.74,4.23,.7,.95,.36,1.86,.36,1.86,0,0,1.03-.84,.16-2.62-1.01-2.07-.14-2.5,0-2.55,0,0,.01,0,.02,0,.02,1.05,2.11,2.48,2.11,2.48-.48-.6-.57-1.52-.58-2.08,.72,0,1.52-.22,2.41-.81,0,0-1.31,2.43,.01,4.88Zm3.81-14.82c1.7-.71,3.55,.3,4.64,1.09,.88,.64,1.33,1.75,1.08,2.81-.46,1.96-2.56,3.53-4.73,3.23-2.89-.4-3.63,1.34-6.3,2.31l-.69,.1c-2.63-.09-6.17-5.17-7.9-5.7-1.89-.57-2.4,1.78-2.4,1.78,0,0-1.53-1.78-.36-3.11,1.54-1.76,2.54-.88,6.22-.04s6.91-.65,6.91-.65c-.3,1.5-4.07,2.86-4.07,2.86,5.42-.61,5-3.6,7.59-4.69Zm5.5,9.92c-2.62,4.48-2.85,7.54-1.06,10.22,0,0-4.76-3.98-3.96-8.01,0,0-2.46,2.29-.99,5.4,0,0-2.39-2.58-1.92-5.95,.2-1.43,1.23-2.63,2.56-3.19,.7-.3,1.47-.17,2.39-.1,.08,0,.16,0,.24,0-1.66,2.65-.29,5.06-.29,5.06,0,0-.58-2.25,1.55-4.25,2.12-2,2.4-4.89,2.4-4.89,0,0,.58,3.12-.92,5.7Zm10.4-7.97c1.11,3.87-.22,5,4.11,8.24,0,0-5.55-1.54-7.77-3.8,0,0,3.22,6.41,8.09,8.01,0,0-11.85,.47-13.6-11.34h0c.07,.03,1.76,.73,3.18-.73,.58,.2,1.23,.6,1.74,1.41,1.18,1.86,3.48,2.96,3.48,2.96-1.49-1.36-1.85-2.54-2.75-4.43-.42-.89-.97-1.39-1.42-1.66,.33-.82,.59-1.87,.74-3.24,0,0,3.08,.71,4.19,4.58Zm-5.5-2.65c-.83,2.19-3.33,3.79-4.38,1.56,0,0,3.48-.07,3.32-5.89-.16,1.08-.65,2.97-3.81,4.86,0,0-1.66-2.6-.54-5.35,1.12-2.75,3.51-5.37,1.23-8.59,0,0,.49,2.33-.85,4.57l-.39,.77c-.65-5.62-1.06-5.61-3.72-9.03-2.51-3.23,.88-4.48,1.25-4.6-.4,1.45-.22,2.96,1.58,3.92,4.34,2.31,4.87,3.31,4.82,5.32-.03,.75-.07,1.32-.09,1.8-.06,1.35,0,1.98,.76,3.78,0,0,1.98,3.79,.81,6.88Zm-12.75-21.34c.39-1.16,1.11-2.94,2.12-3.95,0,0-.78,1.91-.91,3.35-.42,.16-.83,.36-1.21,.6Zm27.4,17.59s-2.58-2.14-6.36,.9c-.02,.02-.05,.04-.08,.05-1.67,1.18-3.96,.99-5.39-.47-.93-.95-1.77-1.52-1.77-1.52,0,0,.01,0,.04,0,.48,.14,.98,.14,1.48,.06,1.25-.13,3.17-.71,5.39-2.73,.08-.07,.04-.03,0,0,3.26-.14,6.7,3.7,6.7,3.7Zm-10.31-11.59c2.16-4.17,8.34-2.89,8.34-2.89-5.61-.24-4.93,3.3-4.93,3.3,3.52-2.77,10.93,.5,10.93,.5-4.15-.65-6.71-.44-8.96,2.81-4.45,6.44-8.16,4.35-8.16,4.35,.62-.38,1.08-.92,1.43-1.52,0,0,0,0,0,0,0,0,0,0,0-.01,.06-.1,.11-.2,.16-.3,.52-.95,2.24-3.8,4.11-4.04,0,0-2.16-.62-3.46,.9,0-.03,0-.06,0-.09-.1-1.03,.05-2.08,.52-3.01Zm-1.56-9.93c2.54,.06,3.99-1.41,3.99-1.41,0,0-1.45,2-4.39,3.45-2.94,1.46-1.77,6.48-.31,7.67s1.16,7.29-2.03,7.59c0,0-.54-.33-.91-1.14,1.97-2.06,1.27-5.21,1.27-5.21-.33,2.35-1.16,3.2-1.63,3.5,0-.43,.05-.91,.18-1.45,.74-3.15,.15-5.71-3.67-7.32h-.03c-.47-.82-.67-1.79-.27-2.99v-.02c1.3-2.87,5.69-2.72,7.79-2.67Zm-16.48-4.84c2.6-3.62,4.83-3.63,4.83-3.63,0,0-2.42,3.12-1.63,5.11,0,0,2.71-3.49,5.45-4.71,2.74-1.23,4.07-1.35,5.38-2.37,0,0-1.86,2.98-4.51,4.67,0,0,5.93-2.45,7.44-6.96,0,0-.24,4.21-3.76,7.5-3.52,3.29-6.35,5.79-7.45,7.8,0,0-1.15,.05-2.48,.4,.24-1.32,1.14-4.23,4.41-5.78,0,0-6.64,.88-7.71,6.1-1.09-1.36-2.68-4.34,.04-8.12Zm-5.89,.27c1.1-3.17-.28-5.27-.28-5.27,5.97,3.16,3.39,7.69,2.85,10.33-.33,1.61,.32,3.45,.88,4.64-.51-.09-1.49-.23-2.48-.38-.11-.08-.22-.15-.32-.23-.89-.65-1.59-1.53-1.98-2.57-.9-2.43,.43-3.92,1.33-6.53Zm-12.29-.31c.21,2.12,5,3.04,5.96,3.51,.96,.47,2.74,1.21,2.66,3.38-.02,.57,.06,1.09,.2,1.55-1.41-.38-4.76-1.49-6.43-3.66,0,0,1.68,3.23,5.61,5.08-1.92,.28-5.04-1.18-5.04-1.18-4.48-4.42-2.96-8.67-2.96-8.67Zm-11.42,33.9s.02,0,.03,0c-.02,0-.03,0-.03,0Zm4.21,3.61c1.56-2.97,5.27-3.32,5.27-3.32,0,0-2.65-1.38-4.98,.46-1.58-.16-3.48-.54-4.2-.69,2.54,.44,4.39-1.89,6.83-4.49,.18-.17,.39-.39,.64-.67,.08-.08,.15-.16,.23-.24,0,0,.28-.28,.77-.64,1.07-.72,2.11-.8,2.88-.69-.4,.37-.83,.92-1.26,1.7-1.52,2.75-4.15,4.25-4.15,4.25,0,0,2.51-.58,4.78-2.41,3.35-2.71,7.08-.08,7.08-.08l-2.53-2.1c-.66-.55-1.21-1.23-1.61-1.99-.24-.33-.52-.72-.78-1.13,.5-.4,2.29,.13,4.27-.49,2.21-.7-3.51,.53-5.32-2.13l-.09,.52,.31,.69c-.33-.1-2.28-.55-6.54,.38-3.46,.75-6.02-2.43-6.02-2.43,0,0,4.06,2.68,7.26-1.47,0,0-2.38,.9-4.08,.37,0,0,2.43-.24,2.88-1.48l1.32-.25,5.96-.02s.06,0,.06,0c.34-.23,.07-.34,.21-.74,.06-.18,1.32-1.73,1.32-1.73,.72-.74,.65-2.34,1.29-2.05,.64,.29,1.08-.74,.38-.84-.41-.06-1.11,.03-1.62,.11-.33,.05-.54,.39-.44,.71,0,0,.25,.44-.47,1.61-.37,.59-.69,1.23-1.03,1.61,0,0,0,0,0,0-.36-.59-.79-1.26-.53-2.11,0,0-6.77,.46-9.65-2.79,0,0,2.63,4.36,8.45,4.38,0,0,0,0-.01,.01h.01c-1.33,.83-3.74,1.36-5.53,.82-3.53-1.06-4.96-5.07-5.3-6.76-.34-1.69-1.24-5-4.36-5.96,.03,0,.05-.01,.08-.02,.44-.09,2.63-.37,4.8,2.15,.35,.46,.65,.93,.93,1.36,.02,.04,.05,.07,.08,.11h0s0,.01,.01,.02c.06,.08,.11,.15,.18,.23,4.73,6.1,10.14,3.12,10.14,3.12l-4.32-.38,1.42-.5c-4.78,.08-5.77-1.86-5.77-1.86,1.99,.77,3.93,.81,5.22,.72,1.37-.11,2.75-.1,4.11,.05l3.45,.37-2.91,1.94,7.02-2c2.79,.98,4.01,5.85,3.69,3.7-.34-2.29-1.89-3.73-1.33-4.24,.46-.41,4.56,1.56,6.1,2.33l-1.86,1.57,2.35-.78c.99-.33,2.06-.3,3.03,.07l.23,.09c.92,.35,1.54,1.21,1.58,2.19,.02,.46-.23,.89-.63,1.11l-.99,.53c-.24,.13-.51-.09-.44-.35l.04-.13s-2.21-.74-3.04,.15c-1.03,1.11-.58,1.24-1.76,2.5l.52,.36c.98-.14,1.64-.32,2.49-.82l-1.21,.93c-1.13,.92-1.71,.5-2.37-.1-.11-.1-.25-.15-.39-.15h-3.6s2.82,.49,3.37,1.05,1.23,1.87,2.41,2.05c1.18,.18,1.77,1.47,1.77,1.47l.03-.66c.07-1.38,.59-1.94,1.69-2.95l2.09-1.66c.45-.29,.72-.79,.72-1.33v-1.77c.27,.67,.63,1.56,1.01,2.53l.11,.32v-.03c.56,1.47,1.13,3.05,1.43,4.19,0,0-1.69,3.99-.55,7.46-1.9-1.22-5.21-2.77-7.59-.77-1.39,1.18-2.25,2.27-3.31,2.72,.03-.09,.05-.19,.07-.29l.57-2.61c.42-1.43,.7-2.14,1.91-2.81l.58-.32s-1.43,.04-2.1-.94c-.63-.92-2.4-.93-3.23-1.14-.12-.03-.25-.03-.36,.03-.15,.08-.16,.21,.13,.62,.51,.73,1.5,.83,1.17,2.25l-.3,1.5c.07-.98-.06-1.66-.36-2.6l-.56-.31c-.62,1.62-.93,1.27-1.47,2.68-.44,1.14,1.21,2.8,1.21,2.8l.1-.09c.2-.18,.52-.03,.51,.24l-.04,1.03c-1.2-.35-2.77-1.26-5.07-2.98l-.23-1.64-.31,1.24c-.42-.32-.86-.66-1.32-1.03,0,0,1.26,2.63,2.7,3.85,0,0-.42-.22-1.03-.32-1.71-.4-5.02-.62-6.06,3.32-.62,.19-1.3,.32-2.04,.34-3.95,.12-6.14,2.38-6.14,2.38Zm6.03,18.13c-.04,.38-.14,.52-.14,.52,0-.2-.03-1.09,0-1.29,.18-1.67,.82-4.63,3.47-7.64,0,0-3.71,2.8-4.69,3.76-.13,.16-.22,.25-.22,.25,.03-.06,.11-.14,.22-.25,.46-.57,1.54-2.11,1.96-4.65,.53-3.2-.33-7.7,2.44-11,.61-.2,1.05-.37,1.36-.51-.05,1.89,1.6,2.98,1.6,2.98,0,0,.46-.88,1.11-1.52-.87,2.05-.67,3.14-.11,5.2,.66,2.43-.66,4.81-.66,4.81,0,0,1.98-.72,2.09-3.44,.17-4.22,1.59-5.51,1.59-5.51-.5,1.98,.17,4.29,.65,5.42-.05,.58-.02,1.15,.06,1.71-.47,1.23-1.58,3.38-4.07,5.22-4.71,3.49-5.52,7.86-5.82,9.48,0,0-.16-3.96,2.18-7.77,0,0-2.56,1.25-3.01,4.25Z"/><path d="M776.8,605.62s0,0,0,0c-.07,.06-.03,.03,0,0Z"/></g><g><path d="M427.58,792.34c-.93-.39-.35-1.52-.73-1.64-.12-.04-.24-.07-.35-.1-.28-.08-.56-.13-.85-.14-.11,0-.24,0-.36,0-.39,0-.19,1.25-1.2,1.33-.75,.06-1.46-.28-1.74-.05-.51,.42,.48,1.01,.48,1.01,0,0-.34-.35,1.12-.38,.99-.02,.94-.5,1.2-.64,.03-.02,.09-.03,.17-.04,.39-.04,.78,.02,1.14,.18,.07,.03,.13,.06,.15,.09,.2,.21,0,.66,.94,.98,1.38,.48,.95,.71,.95,.71,0,0,1.12-.25,.77-.81-.19-.3-.98-.2-1.67-.49Z"/><path d="M421.92,788.52s0-.37,.05-.46c.18-.3,1.82,1.8,2.4,1.62,.5-.16,.87-.27,1.14-.34,.36-.1,.75-.04,1.07,.17,.23,.15,.56,.38,.98,.68,.49,.36,2.71-1.14,2.78-.79,.02,.11-.1,.46-.1,.46,0,0,.5-.17,.52-.45,.02-.28-.89-.46-.89-.46,0,0-1.81,.64-2.23,.47-.08-.03-.16-.09-.24-.15,0,0-.11-.09-.26-.21-.06-.04-.11-.09-.18-.14-.28-.21-.62-.45-.78-.48-.29-.05-1.26,.37-1.36,.41-.1,.03-.19,.06-.28,.06-.45,.03-1.98-1.14-1.98-1.14,0,0-.92-.11-.99,.16-.07,.27,.35,.58,.35,.58Z"/><path d="M377.48,799.99s4.02,1.83,7.92,1.07c4.72-.92,8.95,.3,11.54,2.07,1.65,1.13,3.18,1.77,4.07,2.09-1.33,1.19-2.45,2.37-3.7,2.69-3.07,.78-7.09-1.74-7.09-1.74,4.75,7.75,13.81,3.63,13.81,3.63-2.43,2-7.88,2.26-7.88,2.26,3.65,2.02,7.09,1.3,9.36,.32-2.15,2.53-3.05,5.72-3.05,5.72,1.16-2.37,4.95-3.37,4.95-3.37-5.06,3.25-4.81,8.29-4.81,8.29,3.02-4.26,6.69-4.06,9.52-3.67,1.92,.26,2.43,.18,2.55,.1-.19,.41-1.09,2.51-1.55,6.14-1.14,9.01,4.35,12.9,4.35,12.9-3.24-4.38,.53-12.04,.53-12.04-1.11,2.83,.99,7.97,.99,7.97,0,0,0-5.07,3.61-6.64,3.62-1.57,5-4.54,5-4.54,.55,1.18,2.45,2.33,4.44,4.06s1.71,5.11,1.71,5.11c3.68-3.6,3.12-7.3,2.64-8.85,.06,.03,.12,.05,.18,.08,1.84,.85,4.82,1.6,6.54,3.34,2.1,2.12,2.31,6.72,2.31,6.72v-.02s0,.02,0,.02c2.82-6.61-1.06-12.1-1.06-12.1,1.31,.47,2.8,3.34,2.8,3.34,1.01-8.17-6.14-10.3-6.14-10.3,2.9-3.97,5.48-2.27,9.25,.12,3.77,2.39,6.52-.62,6.52-.62-3.51,1.08-5.98-2.14-6.69-4.34-.71-2.2-3.13-4.68-3.13-4.68,0,0-.33-.18,7.25,2.64,7.58,2.82,12.3-3.37,12.3-3.37-3.49,2.38-8.9-.02-10.82-2.68-1.92-2.66-4.8-3.62-4.8-3.62,1.73-.22,4.46,2.08,4.46,2.08-2.03-7.26-9.2-6.93-9.2-6.93,6.93-3.65,3.68-9.68,3.68-9.68-.25,2.86-2.23,4.74-6.42,4.27-1.17-.13-2.31,.04-3.33,.34,.19-.92,.34-2.61,0-5.51-.6-5.07,3.3-5.92,3.3-5.92-7.48-1.37-9.91,5.08-9.91,5.08,0,0-.76-.68-3.02-4.57-1.98-3.41,1.26-5.56,1.09-9.15,0-.04-.01-.08-.02-.13-.02-2.38-3.22-4.42-3.22-4.42,1.1,6.29-4.09,7-6.65,9.28-2.87,2.55-1.48,6.01-1.48,6.01-1.9-.26-2.79-5.15-2.79-5.15-1.66,4.18,.85,6.21,.85,6.21-3.51-1.91-1.57-6.95-1.57-6.95-2.96,2.96-3.17,7.29-1.19,10.03,1.98,2.74,1.1,5.12,1.1,5.12-1.31-3.59-4.73-3.88-8.04-5.36-3.43-1.53-3.86-6.42-3.86-6.42-1.3,5.63,.62,8.63,1.29,9.47-2.26-2.4-6.31-1.16-6.31-1.16,6.3,1.3,6.1,4.03,7.55,6.38-4.41-.43-9.42,3.15-12.42,3.45-3.02,.3-6.02-1.67-6.02-1.67,1.94,3.14,5.11,3.53,5.11,3.53-4.64-.58-5.15,.69-8.25,2.11-3.11,1.42-8.13,1.56-8.13,1.56Zm27.81,11.48c-1.75,2.17-6.52,.81-6.52,.81,0,0,7.58,.14,6.54-3.53,0,0-8.9,3.17-12.53-.76,0,0,4.64,2.39,7.33-.44,2.25-2.37,4.93-5.53,8.49-3.8,0,0,0,0,0,0-.13,.27-.25,.54-.35,.82-1.05-.46-2.12-.17-3.61,2.33-.6,1.01-1.58,1.05-1.58,1.05,0,0,1.18,.62,2.48-.87,1.52-1.74,2.25-1.1,2.35-1,0,0,0,.01,0,.02-.96,.42-1.47,2.91-1.47,2.91,.36-.68,1.18-1.12,1.7-1.34,.27,.67,.8,1.31,1.68,1.91,0,0-2.75-.26-4.5,1.91Zm15.14-2.25c1.31,1.29,1.1,3.39,.8,4.7-.25,1.06-1.09,1.9-2.17,2.09-1.99,.34-4.25-.99-4.82-3.1-.76-2.82-2.64-2.82-4.58-4.91l-.36-.59c-.94-2.46,2.37-7.69,2.18-9.49-.21-1.96-2.57-1.52-2.57-1.52,0,0,1.05-2.1,2.73-1.54,2.22,.73,1.8,2,2.45,5.71s3.29,6.12,3.29,6.12c-1.5,.31-4.22-2.64-4.22-2.64,2.67,4.76,5.26,3.2,7.27,5.17Zm-7,8.93c-5.15-.67-8.05,.3-9.83,3,0,0,1.81-5.93,5.84-6.76,0,0-3.07-1.38-5.36,1.18,0,0,1.45-3.21,4.73-4.08,1.4-.37,2.9,.11,3.94,1.12,.54,.53,.73,1.29,1.02,2.17,.03,.08,.05,.15,.08,.22-3.09-.49-4.77,1.7-4.77,1.7,0,0,1.85-1.41,4.51-.23,2.67,1.18,5.44,.31,5.44,.31,0,0-2.65,1.75-5.61,1.37Zm11.38,6.48c-3.13,2.53-4.69,1.74-6,7,0,0-.74-5.71,.48-8.64,0,0-4.66,5.46-4.24,10.57,0,0-5.04-10.74,5.16-16.94h0c0,.08,0,1.91,1.9,2.65,.04,.61-.08,1.37-.62,2.15-1.26,1.81-1.37,4.36-1.37,4.36,.67-1.91,1.62-2.69,3.01-4.25,.65-.74,.9-1.43,.98-1.96,.88-.02,1.95-.19,3.27-.58,0,0,.54,3.11-2.59,5.64Zm.3-6.1c-2.35,.09-4.79-1.6-3.14-3.43,0,0,1.42,3.18,6.72,.77-1.06,.27-2.99,.56-5.96-1.62,0,0,1.75-2.54,4.72-2.58,2.97-.03,6.31,1.14,8.4-2.21,0,0-1.95,1.35-4.55,.99l-.86-.06c4.93-2.78,4.76-3.16,6.87-6.93,2-3.57,4.47-.93,4.73-.63-1.49,.19-2.81,.95-3,2.98-.44,4.9-1.16,5.78-3.03,6.51-.7,.26-1.25,.45-1.7,.62-1.27,.47-1.83,.77-3.19,2.17,0,0-2.72,3.3-6.03,3.42Zm14.7-20.04c1.22-.09,3.14-.12,4.46,.42,0,0-2.06,.02-3.44,.46-.31-.32-.65-.62-1.02-.88Zm-5.56,32.08s.97-3.21-3.3-5.51c-.03-.01-.05-.03-.08-.05-1.73-1.08-2.45-3.26-1.66-5.15,.51-1.23,.71-2.23,.71-2.23,0,0,0,.01,0,.04,.06,.5,.25,.96,.52,1.39,.6,1.1,1.89,2.64,4.61,3.9,.09,.04,.05,.02,0,0,1.4,2.95-.81,7.61-.81,7.61Zm6.67-14c4.68,.37,5.91,6.56,5.91,6.56-1.96-5.26-4.96-3.26-4.96-3.26,3.92,2.17,3.79,10.27,3.79,10.27-1.01-4.08-2.2-6.35-6.07-7.16-7.66-1.59-7.18-5.83-7.18-5.83,.59,.42,1.27,.64,1.96,.72,0,0,0,0,0,0,0,0,0,0,.01,0,.11,.01,.22,.02,.34,.03,1.08,.11,4.37,.59,5.32,2.22,0,0-.27-2.23-2.17-2.84,.03-.01,.05-.03,.08-.04,.91-.5,1.94-.77,2.97-.69Zm8.54-5.3c.93,2.36,2.85,3.13,2.85,3.13,0,0-2.4-.56-4.89-2.7-2.48-2.14-6.66,.89-7.18,2.7s-6.27,3.91-7.78,1.08c0,0,.1-.62,.69-1.28,2.66,1.01,5.29-.85,5.29-.85-2.29,.61-3.4,.18-3.86-.14,.39-.17,.85-.31,1.4-.4,3.19-.54,5.32-2.08,5.32-6.22l-.02-.02c.58-.75,1.39-1.32,2.65-1.41h.02c3.15,.08,4.72,4.17,5.49,6.13Zm-1.94-17.06c4.35,.99,5.22,3.04,5.22,3.04,0,0-3.81-1.02-5.34,.49,0,0,4.27,1.14,6.46,3.19,2.19,2.05,2.82,3.22,4.27,4.04,0,0-3.47-.56-6.06-2.34,0,0,4.56,4.51,9.31,4.15,0,0-3.97,1.41-8.37-.55-4.4-1.96-7.81-3.6-10.09-3.84,0,0-.49-1.04-1.33-2.13,1.31-.29,4.34-.59,7.04,1.81,0,0-3.39-5.78-8.62-4.74,.83-1.53,2.95-4.16,7.5-3.12Zm-2.54-5.32c3.35-.22,4.75-2.31,4.75-2.31-.59,6.73-5.76,6.11-8.41,6.64-1.61,.32-3.06,1.64-3.93,2.61-.12-.51-.36-1.46-.61-2.43,.03-.13,.06-.26,.08-.38,.25-1.07,.79-2.06,1.59-2.82,1.88-1.78,3.78-1.13,6.53-1.31Zm-4.49-11.45c-1.88,1.02-.86,5.79-.92,6.86-.06,1.07-.05,3-2.08,3.76-.54,.2-.98,.48-1.35,.78-.2-1.45-.48-4.96,.88-7.35,0,0-2.32,2.8-2.5,7.15-1-1.66-.87-5.1-.87-5.1,2.33-5.85,6.84-6.1,6.84-6.1Zm-35.67,2.66s0,.02,0,.03c0-.02,0-.03,0-.03Zm-1.69,5.28c3.34,.29,5.11,3.57,5.11,3.57,0,0,.24-2.98-2.37-4.41-.46-1.52-.85-3.42-1-4.14,.58,2.51,3.44,3.31,6.79,4.55,.23,.09,.51,.2,.86,.33,.1,.04,.21,.08,.31,.12,0,0,.37,.15,.89,.46,1.08,.71,1.55,1.63,1.76,2.39-.5-.22-1.17-.4-2.06-.5-3.13-.33-5.53-2.17-5.53-2.17,0,0,1.51,2.09,4.08,3.46,3.8,2.03,2.83,6.49,2.83,6.49l.95-3.15c.25-.83,.66-1.59,1.21-2.26,.21-.35,.47-.76,.74-1.16,.57,.3,.77,2.16,2.11,3.74,1.5,1.76-1.86-3.03-.1-5.73l-.52,.12-.52,.56c-.04-.35-.38-2.31-2.89-5.88-2.04-2.89-.1-6.49-.1-6.49,0,0-.89,4.78,4.18,6.12,0,0-1.76-1.84-1.92-3.61,0,0,1.17,2.14,2.48,2.08l.74,1.12,2.33,5.48s.02,.06,.02,.06c.34,.23,.34-.07,.76-.09,.19-.01,2.11,.55,2.11,.55,.96,.38,2.4-.31,2.39,.39-.02,.7,1.1,.71,.92,.03-.1-.4-.46-1.01-.73-1.45-.18-.29-.57-.35-.82-.13,0,0-.31,.41-1.67,.2-.69-.11-1.4-.16-1.88-.32,0,0,0,0-.01,0,.4-.56,.85-1.21,1.74-1.31,0,0-3.06-6.05-1.18-9.97,0,0-3,4.12-.75,9.49,0,0,0,0-.02,0h.02c-1.3-.89-2.72-2.91-2.92-4.77-.4-3.67,2.74-6.54,4.17-7.51,1.43-.97,4.12-3.09,3.79-6.34,.02,.02,.03,.05,.05,.07,.25,.37,1.36,2.28-.12,5.25-.28,.5-.6,.96-.89,1.39-.02,.04-.05,.07-.07,.11h0s0,.01-.01,.02c-.05,.08-.1,.16-.14,.25-3.78,6.73,1.07,10.55,1.07,10.55l-1.33-4.13,1.01,1.12c-1.93-4.38-.53-6.04-.53-6.04,.07,2.13,.78,3.94,1.37,5.09,.63,1.22,1.16,2.49,1.55,3.81l1,3.32-2.92-1.93,4.57,5.69c.18,2.95-3.83,5.97-1.98,4.84,1.97-1.21,2.7-3.19,3.39-2.87,.55,.26,.33,4.8,.23,6.53l-2.17-1.1,1.63,1.87c.68,.78,1.08,1.78,1.12,2.82v.25c.05,.98-.51,1.89-1.4,2.31-.42,.2-.91,.14-1.27-.15l-.87-.71c-.21-.17-.11-.51,.16-.54l.14-.02s-.17-2.33-1.32-2.75c-1.42-.52-1.36-.05-2.99-.65l-.13,.62c.51,.84,.93,1.39,1.72,1.98l-1.33-.76c-1.29-.69-1.13-1.38-.83-2.22,.05-.14,.04-.28-.01-.42l-1.41-3.31s.65,2.78,.35,3.51-1.24,1.86-.95,3.01c.3,1.15-.67,2.2-.67,2.2l.62-.23c1.3-.47,2.02-.21,3.37,.41l2.34,1.28c.45,.3,1.01,.35,1.5,.14l1.63-.69c-.51,.51-1.19,1.19-1.94,1.91l-.26,.23h.03c-1.13,1.08-2.37,2.21-3.3,2.93,0,0-4.33,0-7.08,2.39,.39-2.23,.53-5.88-2.24-7.29-1.62-.83-2.96-1.19-3.79-2,.1,0,.19-.02,.29-.05l2.62-.49c1.48-.17,2.25-.19,3.33,.66l.52,.41s-.59-1.3,.05-2.3c.6-.94-.08-2.58-.21-3.42-.02-.12-.07-.24-.17-.32-.13-.1-.26-.06-.52,.36-.48,.76-.18,1.7-1.62,1.96l-1.5,.31c.93-.32,1.5-.7,2.25-1.35l.07-.63c-1.73,.06-1.53-.37-3.04-.32-1.22,.04-2.11,2.2-2.11,2.2l.13,.06c.25,.11,.23,.47-.02,.56l-.97,.37c-.14-1.24,.09-3.05,.78-5.83l1.43-.85-1.26,.19c.13-.51,.28-1.05,.44-1.62,0,0-1.93,2.18-2.49,3.98,0,0,.04-.48-.11-1.08-.29-1.73-1.38-4.87-5.41-4.29-.41-.49-.8-1.07-1.11-1.75-1.64-3.59-4.58-4.73-4.58-4.73Zm-14.36,12.61c-.37,.11-.54,.07-.54,.07,.19-.07,.99-.45,1.19-.5,1.61-.48,4.58-1.05,8.39,.22,0,0-4.02-2.33-5.29-2.86-.2-.06-.31-.11-.31-.11,.06,0,.17,.05,.31,.11,.7,.21,2.54,.6,5.04,0,3.16-.76,6.96-3.29,11.08-2.03,.42,.48,.75,.82,1,1.06-1.76,.69-2.12,2.63-2.12,2.63,0,0,.99,.08,1.84,.43-2.23,0-3.15,.6-4.83,1.92-1.98,1.55-4.68,1.26-4.68,1.26,0,0,1.43,1.54,3.98,.58,3.96-1.48,5.7-.68,5.7-.68-2.02,.31-3.89,1.83-4.74,2.71-.55,.18-1.07,.43-1.55,.72-1.31,.05-3.73-.15-6.39-1.72-5.05-2.98-9.38-2.03-11-1.68,0,0,3.58-1.68,8.01-1.01,0,0-2.15-1.87-5.08-1.12Z"/><path d="M435.06,822.95s0,0,0,0c-.09-.04-.04-.02,0,0Z"/></g><g><path d="M96.33,246.04c.79-.63,1.5,.43,1.79,.15,.09-.09,.18-.17,.26-.25,.2-.21,.38-.43,.53-.68,.06-.1,.12-.21,.18-.31,.19-.34-1-.77-.59-1.7,.31-.68,.95-1.14,.89-1.5-.12-.65-1.11-.07-1.11-.07,0,0,.47-.13-.21,1.16-.46,.88-.01,1.07-.02,1.36,0,.03-.02,.09-.05,.16-.15,.36-.4,.68-.71,.91-.06,.05-.11,.08-.15,.09-.28,.08-.58-.32-1.31,.35-1.09,.98-1.08,.49-1.08,.49,0,0-.32,1.1,.34,1.06,.36-.02,.65-.76,1.23-1.23Z"/><path d="M102.41,242.92s.33,.17,.38,.27c.18,.3-2.46,.73-2.58,1.32-.1,.51-.18,.89-.25,1.17-.09,.37-.33,.68-.67,.85-.25,.13-.6,.31-1.07,.53-.55,.26-.31,2.92-.65,2.82-.11-.03-.35-.31-.35-.31,0,0-.09,.52,.14,.67,.24,.15,.84-.56,.84-.56,0,0,.31-1.9,.67-2.18,.07-.06,.15-.1,.25-.14,0,0,.13-.05,.3-.12,.07-.03,.13-.06,.2-.09,.32-.14,.7-.33,.8-.45,.18-.23,.28-1.28,.3-1.39,.02-.1,.04-.19,.08-.27,.19-.41,1.95-1.18,1.95-1.18,0,0,.54-.76,.34-.95-.2-.19-.68,.03-.68,.03Z"/><path d="M113.8,198.46s-3.54,2.64-4.76,6.42c-1.47,4.58-4.58,7.69-7.38,9.11-1.79,.91-3.08,1.93-3.79,2.56-.4-1.74-.89-3.29-.57-4.54,.8-3.06,4.94-5.37,4.94-5.37-9.08,.42-9.84,10.34-9.84,10.34-.58-3.09,1.82-7.99,1.82-7.99-3.53,2.22-4.56,5.59-4.79,8.05-1.17-3.1-3.54-5.43-3.54-5.43,1.52,2.16,.56,5.96,.56,5.96-.4-6-4.94-8.21-4.94-8.21,2.27,4.7,.33,7.81-1.38,10.11-1.15,1.55-1.33,2.04-1.32,2.19-.27-.36-1.67-2.17-4.63-4.32-7.34-5.35-13.4-2.41-13.4-2.41,5.4-.72,10.29,6.27,10.29,6.27-1.95-2.34-7.46-2.98-7.46-2.98,0,0,4.44,2.44,4.08,6.37-.37,3.93,1.57,6.57,1.57,6.57-1.3-.09-3.22,1.02-5.7,1.94-2.47,.92-5.3-.97-5.3-.97,1.38,4.96,4.89,6.25,6.48,6.58-.05,.04-.1,.08-.15,.12-1.63,1.21-3.72,3.45-6.09,4.12-2.87,.81-7.01-1.22-7.01-1.22h.02s-.02,0-.02,0c4.43,5.66,11.11,4.91,11.11,4.91-1.04,.92-4.27,.84-4.27,.84,6.67,4.83,11.98-.41,11.98-.41,2.08,4.46-.65,5.9-4.57,8.05-3.92,2.15-2.6,6.01-2.6,6.01,.74-3.6,4.76-4.2,7.03-3.76,2.27,.44,5.61-.49,5.61-.49,0,0,.32-.2-5.8,5.08-6.12,5.28-2.98,12.4-2.98,12.4-.41-4.2,4.31-7.79,7.57-8.19,3.26-.4,5.49-2.45,5.49-2.45-.65,1.62-3.97,2.9-3.97,2.9,7.34,1.73,10.51-4.72,10.51-4.72-.14,7.83,6.7,7.89,6.7,7.89-2.39-1.6-3.07-4.24-.64-7.68,.68-.96,1.08-2.04,1.3-3.08,.71,.61,2.12,1.55,4.83,2.65,4.73,1.92,3.59,5.74,3.59,5.74,4.81-5.89,.33-11.13,.33-11.13,0,0,.96-.34,5.46-.45,3.94-.09,4.26,3.79,7.49,5.37,.04,.02,.08,.03,.12,.04,2.09,1.12,5.42-.69,5.42-.69-6.04-2.07-4.16-6.96-4.92-10.3-.85-3.74-4.56-4.2-4.56-4.2,1.15-1.54,5.86,.04,5.86,.04-2.86-3.47-5.85-2.25-5.85-2.25,3.37-2.16,6.85,1.98,6.85,1.98-1.17-4.02-4.86-6.29-8.21-5.88-3.35,.41-5.01-1.51-5.01-1.51,3.77,.58,5.68-2.27,8.57-4.46,3-2.27,7.49-.28,7.49-.28-4.31-3.85-7.87-3.62-8.92-3.44,3.2-.82,4.06-4.96,4.06-4.96-4.18,4.89-6.47,3.4-9.23,3.53,2.5-3.66,1.78-9.78,2.97-12.55,1.19-2.79,4.36-4.47,4.36-4.47-3.68,.18-5.56,2.77-5.56,2.77,2.75-3.78,1.87-4.84,2.13-8.25,.26-3.4,2.55-7.87,2.55-7.87Zm-23.47,18.82c-1.06-2.58,2.44-6.1,2.44-6.1,0,0-3.78,6.58-.06,7.43,0,0,1.51-9.32,6.71-10.61,0,0-4.33,2.91-3.15,6.63,.99,3.11,2.46,6.98-.76,9.27,0,0,0,0,0,0-.17-.24-.35-.48-.55-.7,.91-.69,1.17-1.78-.29-4.29-.59-1.02-.16-1.89-.16-1.89,0,0-1.11,.73-.43,2.59,.79,2.17-.12,2.5-.26,2.54,0,0-.01,0-.02-.01,.09-1.04-1.84-2.69-1.84-2.69,.42,.65,.41,1.57,.36,2.13-.72-.08-1.53,.07-2.48,.55,0,0,1.55-2.28,.49-4.86Zm-5.33,14.35c-1.76,.53-3.5-.67-4.5-1.56-.81-.73-1.14-1.88-.78-2.91,.66-1.9,2.91-3.25,5.04-2.72,2.83,.7,3.75-.95,6.51-1.64l.7-.03c2.61,.36,5.6,5.79,7.26,6.49,1.82,.77,2.57-1.52,2.57-1.52,0,0,1.33,1.93,.03,3.13-1.71,1.59-2.62,.61-6.19-.61s-6.94-.07-6.94-.07c.46-1.46,4.35-2.42,4.35-2.42-5.46,.04-5.34,3.06-8.04,3.87Zm-4.44-10.44c3.07-4.19,3.62-7.2,2.12-10.06,0,0,4.32,4.45,3.11,8.38,0,0,2.69-2.02,1.55-5.27,0,0,2.11,2.82,1.29,6.11-.35,1.4-1.5,2.49-2.88,2.91-.72,.22-1.48,.02-2.39-.15-.08-.01-.16-.02-.23-.03,1.92-2.47,.81-5,.81-5,0,0,.34,2.3-1.98,4.06-2.32,1.77-2.9,4.61-2.9,4.61,0,0-.26-3.17,1.51-5.57Zm-11.17,6.85c-.7-3.97,.74-4.95-3.24-8.63,0,0,5.36,2.11,7.33,4.59,0,0-2.54-6.71-7.22-8.81,0,0,11.84,.76,12.35,12.7h0c-.07-.03-1.68-.91-3.24,.39-.55-.26-1.16-.73-1.59-1.58-.98-1.97-3.16-3.31-3.16-3.31,1.34,1.51,1.58,2.71,2.28,4.69,.33,.93,.82,1.48,1.24,1.8-.41,.78-.78,1.8-1.07,3.15,0,0-2.99-1.03-3.69-4.99Zm5.19,3.21c1.06-2.1,3.71-3.42,4.51-1.09,0,0-3.47-.29-3.92,5.51,.27-1.06,.96-2.89,4.29-4.44,0,0,1.39,2.76-.02,5.38-1.4,2.62-4.05,4.98-2.11,8.42,0,0-.24-2.36,1.33-4.46l.47-.72c.06,5.66,.47,5.69,2.76,9.37,2.16,3.48-1.34,4.36-1.72,4.45,.55-1.4,.52-2.92-1.17-4.06-4.08-2.75-4.5-3.8-4.24-5.79,.11-.74,.2-1.31,.28-1.79,.2-1.34,.2-1.97-.36-3.84,0,0-1.58-3.97-.09-6.93Zm10.47,22.55c-.51,1.11-1.41,2.81-2.52,3.71,0,0,.97-1.82,1.26-3.24,.43-.12,.86-.27,1.26-.47Zm-25.42-20.34s2.34,2.4,6.42-.23c.03-.02,.05-.03,.08-.05,1.79-1,4.04-.57,5.32,1.03,.83,1.04,1.61,1.7,1.61,1.7,0,0-.01,0-.03-.01-.47-.18-.96-.24-1.46-.21-1.25,0-3.23,.38-5.64,2.16-.08,.06-.04,.03,0,0-3.26-.2-6.28-4.38-6.28-4.38Zm9.05,12.59c-2.58,3.92-8.59,2.01-8.59,2.01,5.56,.83,5.24-2.77,5.24-2.77-3.79,2.39-10.82-1.64-10.82-1.64,4.06,1.08,6.63,1.14,9.2-1.86,5.09-5.94,8.56-3.48,8.56-3.48-.65,.31-1.17,.8-1.58,1.37,0,0,0,0,0,0,0,0,0,0,0,0-.07,.09-.13,.18-.19,.28-.62,.89-2.62,3.55-4.51,3.59,0,0,2.08,.84,3.53-.53,0,.03,0,.06,0,.09,0,1.04-.26,2.07-.83,2.94Zm.52,10.04c-2.52-.33-4.12,.99-4.12,.99,0,0,1.65-1.84,4.73-2.98,3.08-1.14,2.44-6.26,1.1-7.59s-.4-7.37,2.81-7.34c0,0,.5,.39,.79,1.23-2.17,1.84-1.81,5.05-1.81,5.05,.57-2.3,1.49-3.06,1.99-3.31-.04,.42-.14,.9-.32,1.42-1.07,3.06-.74,5.67,2.88,7.66h.03c.38,.86,.48,1.85-.04,3v.02c-1.6,2.72-5.94,2.12-8.03,1.85Zm15.88,6.53c-2.97,3.33-5.18,3.11-5.18,3.11,0,0,2.73-2.85,2.15-4.91,0,0-3.06,3.18-5.91,4.12-2.85,.93-4.18,.92-5.6,1.79,0,0,2.16-2.77,4.97-4.17,0,0-6.15,1.82-8.13,6.15,0,0,.68-4.16,4.52-7.07,3.84-2.91,6.91-5.1,8.23-6.98,0,0,1.14,.07,2.51-.14-.38,1.28-1.57,4.08-4.98,5.29,0,0,6.7-.18,8.31-5.26,.94,1.46,2.22,4.59-.89,8.08Zm5.89,.34c-1.42,3.04-.27,5.28-.27,5.28-5.61-3.76-2.58-8-1.76-10.57,.5-1.57,.04-3.46-.39-4.71,.5,.14,1.46,.39,2.42,.63,.1,.09,.2,.18,.29,.26,.82,.74,1.42,1.69,1.7,2.76,.65,2.51-.84,3.86-2,6.35Zm12.19,1.59c.01-2.13-4.66-3.55-5.57-4.11-.91-.57-2.6-1.49-2.29-3.64,.08-.57,.05-1.09-.03-1.56,1.36,.53,4.58,1.97,6.01,4.31,0,0-1.33-3.39-5.05-5.64,1.94-.08,4.89,1.7,4.89,1.7,4,4.86,2.04,8.93,2.04,8.93Zm14.88-32.53s-.02,0-.03,0c.02,0,.03,0,.03,0Zm-3.81-4.03c-1.86,2.79-5.59,2.76-5.59,2.76,0,0,2.5,1.65,5.01,.06,1.55,.33,3.41,.9,4.11,1.12-2.48-.7-4.56,1.42-7.26,3.76-.19,.16-.42,.35-.7,.6-.08,.07-.17,.14-.26,.21,0,0-.31,.25-.83,.55-1.14,.6-2.18,.57-2.94,.39,.44-.33,.92-.83,1.43-1.56,1.8-2.58,4.57-3.8,4.57-3.8,0,0-2.56,.31-5,1.9-3.61,2.35-7.05-.65-7.05-.65l2.3,2.35c.6,.62,1.08,1.35,1.39,2.15,.2,.35,.44,.77,.66,1.21-.54,.35-2.27-.37-4.29,.04-2.27,.46,3.55-.17,5.07,2.67l.15-.51-.24-.72c.32,.13,2.21,.78,6.55,.31,3.52-.39,5.73,3.05,5.73,3.05,0,0-3.75-3.09-7.38,.71,0,0,2.46-.65,4.09,.06,0,0-2.44-.01-3.02,1.17l-1.34,.11-5.93-.6s-.06,0-.06,0c-.36,.19-.1,.33-.28,.71-.08,.17-1.5,1.59-1.5,1.59-.79,.66-.89,2.26-1.49,1.9-.6-.35-1.15,.62-.47,.79,.4,.1,1.11,.09,1.63,.06,.34-.02,.58-.33,.51-.66,0,0-.21-.46,.63-1.56,.42-.55,.81-1.15,1.19-1.49,0,0,0,0,0,0,.3,.62,.65,1.33,.31,2.15,0,0,6.78,.24,9.31,3.77,0,0-2.16-4.61-7.95-5.24,0,0,0,0,.01-.01h-.01c1.41-.69,3.86-.96,5.59-.24,3.4,1.42,4.41,5.55,4.57,7.27,.16,1.72,.71,5.1,3.72,6.38-.03,0-.06,0-.08,0-.45,.04-2.65,.09-4.55-2.64-.3-.49-.55-.99-.79-1.45-.02-.04-.04-.08-.06-.12h0s0-.01-.01-.02c-.05-.08-.1-.17-.15-.25-4.07-6.56-9.76-4.16-9.76-4.16l4.26,.83-1.46,.35c4.76,.42,5.55,2.45,5.55,2.45-1.9-.97-3.82-1.22-5.12-1.25-1.37-.04-2.74-.19-4.09-.48l-3.39-.72,3.09-1.63-7.19,1.26c-2.67-1.26-3.38-6.23-3.28-4.06,.11,2.31,1.49,3.91,.88,4.35-.5,.36-4.37-2.03-5.83-2.95l2.01-1.37-2.42,.53c-1.02,.22-2.08,.09-3.01-.38l-.22-.11c-.88-.44-1.4-1.36-1.34-2.34,.03-.46,.32-.86,.74-1.04l1.04-.43c.25-.1,.5,.15,.4,.4l-.05,.13s2.13,.97,3.04,.17c1.14-.99,.7-1.17,2.01-2.31l-.48-.42c-.99,.04-1.67,.15-2.57,.55l1.3-.8c1.22-.8,1.75-.32,2.35,.35,.1,.11,.23,.18,.37,.19l3.58,.36s-2.75-.77-3.24-1.38-1.03-1.99-2.18-2.28c-1.15-.3-1.61-1.65-1.61-1.65l-.1,.66c-.21,1.37-.79,1.87-1.98,2.76l-2.25,1.43c-.48,.25-.8,.72-.85,1.25l-.18,1.76c-.2-.69-.47-1.62-.74-2.62l-.07-.33v.03c-.41-1.52-.81-3.15-.99-4.31,0,0,2.09-3.79,1.32-7.36,1.77,1.41,4.9,3.3,7.47,1.55,1.51-1.02,2.47-2.02,3.58-2.36-.04,.09-.07,.18-.1,.28l-.84,2.53c-.56,1.38-.92,2.06-2.19,2.6l-.61,.26s1.42,.11,1.99,1.15c.54,.98,2.29,1.17,3.09,1.47,.12,.04,.25,.05,.37,0,.15-.06,.18-.2-.06-.63-.43-.78-1.4-.98-.93-2.36l.45-1.46c-.17,.97-.11,1.66,.09,2.62l.52,.36c.78-1.55,1.06-1.16,1.74-2.51,.55-1.09-.91-2.91-.91-2.91l-.11,.08c-.22,.16-.52-.02-.48-.29l.15-1.02c1.15,.47,2.63,1.54,4.73,3.49l.05,1.66,.44-1.2c.38,.36,.78,.75,1.2,1.16,0,0-.98-2.75-2.29-4.11,0,0,.4,.26,1,.42,1.66,.58,4.93,1.14,6.37-2.67,.63-.12,1.32-.18,2.07-.12,3.94,.29,6.35-1.73,6.35-1.73Zm-4.12-18.66c.08-.38,.19-.51,.19-.51-.03,.2-.08,1.09-.13,1.28-.36,1.64-1.29,4.52-4.24,7.24,0,0,3.98-2.4,5.05-3.26,.15-.15,.24-.22,.24-.22-.04,.05-.12,.13-.24,.22-.52,.51-1.75,1.94-2.43,4.42-.86,3.13-.47,7.69-3.57,10.69-.62,.13-1.08,.26-1.41,.37,.25-1.87-1.28-3.13-1.28-3.13,0,0-.55,.83-1.26,1.4,1.08-1.95,.99-3.05,.65-5.16-.4-2.49,1.15-4.71,1.15-4.71,0,0-2.04,.51-2.43,3.21-.61,4.18-2.15,5.32-2.15,5.32,.71-1.92,.28-4.29-.08-5.46,.11-.57,.14-1.14,.12-1.7,.59-1.17,1.93-3.19,4.59-4.77,5.05-2.98,6.31-7.24,6.77-8.82,0,0-.26,3.95-2.97,7.5,0,0,2.68-.98,3.43-3.91Z"/><path d="M65.91,237.83s0,0,0,0c.08-.06,.04-.03,0,0Z"/></g><g><path d="M109.09,616.67c-.19-1,1.08-1.13,.97-1.51-.03-.12-.07-.24-.1-.35-.09-.28-.21-.54-.36-.79-.06-.1-.12-.2-.19-.31-.21-.33-1.15,.53-1.78-.27-.46-.59-.57-1.38-.91-1.48-.63-.2-.58,.95-.58,.95,0,0,.11-.47,.93,.73,.56,.82,.94,.51,1.2,.65,.03,.02,.07,.06,.12,.12,.25,.3,.41,.66,.48,1.05,.01,.08,.02,.14,.01,.17-.06,.29-.55,.36-.3,1.33,.36,1.41-.07,1.18-.07,1.18,0,0,.83,.8,1.1,.19,.15-.33-.37-.93-.51-1.66Z"/><path d="M109.16,609.84s.3-.21,.41-.22c.35-.02-.5,2.51-.03,2.89,.41,.33,.7,.58,.92,.76,.28,.25,.45,.61,.45,.99,0,.28,0,.67-.03,1.19-.03,.61,2.44,1.64,2.19,1.89-.08,.08-.43,.17-.43,.17,0,0,.42,.32,.66,.19,.24-.14-.11-1-.11-1,0,0-1.53-1.16-1.62-1.61-.02-.09-.02-.18-.01-.28,0,0,.02-.14,.03-.33,0-.07,.01-.14,.02-.22,.02-.35,.03-.77-.03-.92-.12-.27-1-.85-1.09-.91-.08-.06-.15-.13-.21-.2-.28-.36-.14-2.28-.14-2.28,0,0-.42-.83-.68-.74-.26,.09-.29,.62-.29,.62Z"/><path d="M75.1,579.08s.69,4.36,3.47,7.2c3.37,3.43,4.68,7.63,4.64,10.77-.03,2,.28,3.63,.5,4.55-1.72-.46-3.33-.74-4.28-1.61-2.34-2.13-2.46-6.87-2.46-6.87-3.85,8.23,4.58,13.52,4.58,13.52-3.01-.92-6.23-5.33-6.23-5.33,.32,4.16,2.83,6.63,4.89,7.99-3.29-.4-6.45,.61-6.45,.61,2.61-.34,5.54,2.28,5.54,2.28-5.5-2.44-9.57,.55-9.57,.55,5.22,.18,7.07,3.34,8.31,5.92,.84,1.74,1.19,2.12,1.32,2.19-.45,.07-2.7,.47-5.98,2.09-8.15,4.01-8.37,10.74-8.37,10.74,1.87-5.12,10.34-6.2,10.34-6.2-2.98,.63-6.11,5.22-6.11,5.22,0,0,4.23-2.8,7.53-.65,3.31,2.15,6.54,1.67,6.54,1.67-.68,1.11-.6,3.33-.94,5.94-.34,2.62-3.32,4.24-3.32,4.24,5.03,1.08,7.81-1.42,8.84-2.68,.01,.06,.02,.13,.03,.19,.31,2,1.32,4.9,.82,7.3-.61,2.92-4.34,5.64-4.34,5.64h.02s-.02,0-.02,0c7.07-1.29,9.51-7.55,9.51-7.55,.33,1.35-1.24,4.17-1.24,4.17,7.37-3.66,5.21-10.8,5.21-10.8,4.91,.23,4.92,3.32,5,7.79,.08,4.47,4.11,5.1,4.11,5.1-2.84-2.33-1.51-6.17-.06-7.97,1.44-1.81,2.18-5.19,2.18-5.19,0,0-.03-.37,1.8,7.5,1.83,7.87,9.59,8.4,9.59,8.4-3.91-1.6-4.89-7.44-3.73-10.51,1.16-3.07,.38-6,.38-6,1.14,1.33,.72,4.86,.72,4.86,4.94-5.69,.71-11.5,.71-11.5,6.87,3.77,10.11-2.26,10.11-2.26-2.53,1.37-5.18,.75-7.1-3-.54-1.05-1.3-1.9-2.12-2.59,.87-.35,2.36-1.16,4.59-3.04,3.9-3.29,6.76-.51,6.76-.51-2.98-7-9.7-5.47-9.7-5.47,0,0,.14-1.01,2.14-5.04,1.75-3.53,5.33-2.01,8.24-4.13,.03-.02,.06-.06,.09-.09,1.97-1.33,1.91-5.12,1.91-5.12-4.64,4.39-8.1,.45-11.41-.43-3.71-.99-5.83,2.08-5.83,2.08-.83-1.73,2.76-5.16,2.76-5.16-4.41,.92-4.71,4.13-4.71,4.13-.34-3.98,4.94-5.15,4.94-5.15-4.1-.84-7.83,1.37-9.03,4.53-1.2,3.16-3.67,3.74-3.67,3.74,2.27-3.07,.63-6.08,.04-9.66-.61-3.71,3.23-6.76,3.23-6.76-5.41,2.02-6.86,5.28-7.19,6.3,.76-3.21-2.51-5.9-2.51-5.9,2.38,5.97,0,7.31-1.17,9.81-2.07-3.92-7.83-6.13-9.73-8.46-1.91-2.35-1.93-5.94-1.93-5.94-1.55,3.34-.14,6.21-.14,6.21-2.07-4.19-3.42-3.91-6.31-5.72-2.89-1.81-5.78-5.92-5.78-5.92Zm5.75,29.53c-2.77-.26-4.27-5-4.27-5,0,0,4.07,6.4,6.55,3.51,0,0-7.55-5.68-6.27-10.88,0,0,.56,5.18,4.41,5.87,3.21,.57,7.33,1.07,7.85,4.99,0,0,0,0,0,0-.29,.04-.59,.09-.88,.16-.19-1.13-1.03-1.86-3.93-1.73-1.18,.05-1.75-.74-1.75-.74,0,0,.13,1.32,2.09,1.59,2.29,.31,2.16,1.27,2.13,1.41,0,0-.01,0-.02,0-.88-.56-3.24,.38-3.24,.38,.77-.07,1.58,.36,2.05,.68-.41,.59-.66,1.39-.67,2.45,0,0-1.3-2.44-4.07-2.7Zm10.22,11.39c-.35,1.81-2.22,2.79-3.48,3.26-1.02,.38-2.19,.14-2.94-.66-1.38-1.47-1.52-4.09-.07-5.73,1.94-2.18,.9-3.76,1.57-6.52l.29-.63c1.53-2.14,7.72-2.26,9.12-3.41,1.52-1.25-.15-2.98-.15-2.98,0,0,2.33-.28,2.79,1.43,.61,2.25-.68,2.6-3.42,5.19s-3.29,6.11-3.29,6.11c-1.08-1.08-.12-4.97-.12-4.97-2.5,4.85,.22,6.15-.31,8.92Zm-11.31-.92c-2.28-4.66-4.69-6.55-7.92-6.55,0,0,5.95-1.76,8.86,1.15,0,0-.54-3.32-3.94-3.82,0,0,3.48-.56,6.02,1.7,1.08,.96,1.5,2.48,1.24,3.9-.14,.74-.67,1.32-1.24,2.05-.05,.06-.09,.13-.14,.19-1.29-2.85-4.05-3.04-4.05-3.04,0,0,2.19,.77,2.68,3.64,.49,2.87,2.73,4.71,2.73,4.71,0,0-2.92-1.25-4.23-3.92Zm.87,13.07c-3.84-1.22-4.04-2.96-9.14-1.15,0,0,4.36-3.76,7.47-4.36,0,0-7.12-.88-11.15,2.29,0,0,6.18-10.13,16.99-5.03h0c-.07,.05-1.59,1.06-1.16,3.05-.49,.37-1.19,.69-2.14,.67-2.2-.05-4.4,1.26-4.4,1.26,1.96-.49,3.14-.13,5.21,.17,.97,.14,1.69-.04,2.17-.26,.5,.72,1.23,1.53,2.29,2.41,0,0-2.3,2.17-6.14,.95Zm5.25-3.11c-1.36-1.91-1.31-4.88,1.13-4.5,0,0-1.87,2.94,3.06,6.03-.81-.74-2.11-2.19-1.93-5.87,0,0,3.09,.06,4.75,2.52,1.67,2.46,2.53,5.9,6.47,5.79,0,0-2.21-.89-3.33-3.25l-.42-.75c5.04,2.58,5.26,2.23,9.57,1.91,4.08-.3,3.24,3.22,3.13,3.59-.98-1.14-2.34-1.82-4.14-.86-4.33,2.33-5.46,2.21-7.1,1.06-.61-.44-1.06-.79-1.45-1.08-1.09-.8-1.65-1.1-3.57-1.46,0,0-4.25-.45-6.17-3.14Zm24.83,1.22c.75,.97,1.83,2.55,2.11,3.95,0,0-1.16-1.71-2.28-2.62,.1-.44,.16-.89,.17-1.34Zm-29.83,13.04s3.21-.96,2.78-5.79c0-.03,0-.06,0-.09-.05-2.04,1.38-3.84,3.38-4.23,1.31-.25,2.25-.63,2.25-.63,0,0,0,0-.03,.02-.38,.33-.66,.74-.87,1.2-.59,1.11-1.17,3.03-.71,6,.02,.1,0,.05,0,0-1.69,2.79-6.8,3.52-6.8,3.52Zm15.36-2.15c2.27,4.11-2.22,8.54-2.22,8.54,3.32-4.53-.01-5.93-.01-5.93,.35,4.46-6.48,8.82-6.48,8.82,2.84-3.09,4.09-5.34,2.63-9.01-2.89-7.27,.91-9.2,.91-9.2-.02,.72,.17,1.41,.48,2.03,0,0,0,0,0,0,0,0,0,0,0,.01,.05,.1,.1,.2,.16,.3,.5,.96,1.92,3.97,1.08,5.67,0,0,1.71-1.45,1.17-3.37,.03,.01,.05,.03,.07,.04,.92,.49,1.71,1.19,2.21,2.1Zm9.13,4.21c-1.46,2.08-1.04,4.11-1.04,4.11,0,0-.86-2.31-.44-5.57,.42-3.26-4.41-5.07-6.21-4.51s-6.71-3.08-5.19-5.9c0,0,.58-.26,1.45-.13,.62,2.78,3.63,3.95,3.63,3.95-1.77-1.57-2.02-2.74-2.01-3.3,.36,.23,.73,.54,1.11,.95,2.21,2.36,4.67,3.29,8.13,1.01v-.02c.95,.07,1.88,.44,2.65,1.44h.02c1.67,2.69-.89,6.26-2.1,7.98Zm13.17-11.03c1.57,4.18,.34,6.03,.34,6.03,0,0-1.25-3.74-3.35-4.19,0,0,1.4,4.19,.9,7.15-.5,2.96-1.13,4.13-1.02,5.79,0,0-1.45-3.2-1.38-6.34,0,0-1.25,6.29,1.66,10.05,0,0-3.37-2.53-4.15-7.29-.79-4.75-1.3-8.5-2.36-10.53,0,0,.6-.98,1.05-2.29,.96,.93,2.89,3.29,2.37,6.87,0,0,2.96-6.01-.8-9.8,1.73-.15,5.1,.17,6.74,4.54Zm3.04-5.05c2.03,2.67,4.55,2.69,4.55,2.69-5.94,3.21-8.28-1.44-10.18-3.36-1.16-1.17-3.05-1.65-4.35-1.84,.36-.38,1.02-1.11,1.69-1.85,.13-.05,.25-.1,.37-.14,1.03-.38,2.16-.48,3.23-.22,2.52,.59,3.03,2.53,4.69,4.73Zm7.08-10.05c-1.88-1.01-5.3,2.47-6.23,3.01-.92,.54-2.53,1.61-4.28,.34-.46-.34-.94-.55-1.4-.7,1.1-.96,3.88-3.13,6.61-3.32,0,0-3.62-.4-7.34,1.85,.83-1.75,3.78-3.54,3.78-3.54,6.16-1.28,8.86,2.35,8.86,2.35Zm-21.88-28.3s-.01,.01-.02,.02c.01-.01,.02-.02,.02-.02Zm-5.34,1.5c1.6,2.95-.16,6.23-.16,6.23,0,0,2.62-1.44,2.38-4.41,1.01-1.22,2.38-2.6,2.9-3.11-1.78,1.87-.86,4.7-.05,8.17,.05,.24,.11,.54,.2,.9,.02,.11,.05,.22,.07,.32,0,0,.08,.39,.1,.99,0,1.29-.51,2.2-1.02,2.78-.09-.54-.31-1.2-.72-2-1.45-2.8-1.24-5.82-1.24-5.82,0,0-.91,2.41-.64,5.31,.4,4.29-3.85,5.94-3.85,5.94l3.15-.94c.83-.25,1.69-.33,2.55-.24,.41-.02,.89-.03,1.38-.02,.06,.64-1.38,1.83-1.96,3.82-.64,2.22,1.5-3.22,4.72-3.24l-.38-.37-.75-.13c.27-.23,1.72-1.59,3.32-5.65,1.29-3.3,5.36-3.66,5.36-3.66,0,0-4.48,1.89-2.8,6.86,0,0,.57-2.48,1.96-3.59,0,0-1.15,2.15-.37,3.22l-.53,1.24-3.29,4.97s-.03,.05-.03,.05c0,.41,.24,.25,.5,.58,.11,.15,.71,2.06,.71,2.06,.22,1.01,1.58,1.84,.99,2.21-.59,.37,.01,1.31,.48,.78,.28-.31,.59-.94,.81-1.41,.14-.31-.02-.66-.35-.76,0,0-.51-.03-1.08-1.28-.29-.63-.64-1.26-.77-1.75,0,0,0,0,0-.01,.69,.03,1.48,.04,2.05,.73,0,0,3.37-5.89,7.67-6.48,0,0-5.09-.24-8.34,4.6,0,0,0,0,0-.02v.02c.04-1.57,.94-3.87,2.38-5.06,2.84-2.35,6.97-1.32,8.56-.66,1.6,.66,4.85,1.74,7.38-.33,0,.03-.02,.05-.03,.08-.17,.42-1.15,2.39-4.45,2.8-.57,.04-1.13,.03-1.64,.02-.04,0-.09,0-.13,0h0s-.01,0-.02,0c-.1,0-.19,0-.29,.02-7.7,.55-8.22,6.71-8.22,6.71l2.71-3.39-.38,1.46c2.59-4.02,4.75-3.77,4.75-3.77-1.74,1.23-2.86,2.82-3.49,3.95-.67,1.2-1.44,2.34-2.32,3.4l-2.22,2.66v-3.5s-2.23,6.95-2.23,6.95c-2.36,1.78-7.09,.1-5.12,1.02,2.09,.98,4.15,.5,4.26,1.25,.09,.61-3.83,2.92-5.32,3.79l-.28-2.42-.66,2.39c-.28,1-.89,1.88-1.74,2.49l-.2,.14c-.8,.57-1.86,.61-2.7,.1-.39-.24-.61-.68-.57-1.14l.11-1.12c.03-.27,.36-.37,.54-.17l.09,.11s1.85-1.43,1.57-2.61c-.35-1.47-.71-1.16-1.11-2.85l-.59,.23c-.42,.89-.64,1.54-.7,2.53l-.1-1.52c-.14-1.45,.53-1.7,1.4-1.91,.14-.03,.26-.12,.34-.24l1.99-3s-1.97,2.08-2.73,2.23-2.24-.01-3.04,.87c-.8,.88-2.21,.65-2.21,.65l.53,.39c1.11,.82,1.29,1.57,1.52,3.04l.22,2.66c0,.54,.26,1.04,.71,1.33l1.47,.98c-.71-.14-1.65-.34-2.66-.56l-.33-.09,.02,.02c-1.53-.35-3.16-.75-4.28-1.14,0,0-2.38-3.62-5.9-4.59,2.07-.91,5.2-2.8,4.85-5.89-.21-1.81-.64-3.13-.42-4.27,.06,.08,.13,.15,.2,.21l1.85,1.92c.96,1.14,1.4,1.77,1.28,3.15l-.05,.66s.76-1.21,1.95-1.23c1.12-.02,2.11-1.48,2.74-2.06,.09-.08,.16-.2,.18-.32,.02-.16-.09-.25-.59-.24-.89,.02-1.52,.79-2.53-.27l-1.08-1.08c.78,.6,1.42,.87,2.36,1.14l.56-.29c-1-1.41-.54-1.48-1.41-2.71-.7-.99-3-.55-3-.55l.02,.14c.04,.27-.26,.45-.48,.29l-.84-.6c.96-.8,2.59-1.61,5.29-2.56l1.49,.72-.85-.95c.5-.17,1.03-.34,1.59-.52,0,0-2.89-.41-4.7,.12,0,0,.42-.23,.84-.68,1.28-1.2,3.3-3.84,.6-6.88,.18-.62,.46-1.26,.85-1.89,2.09-3.35,1.42-6.42,1.42-6.42Zm-18.43-5.03c-.29-.25-.36-.41-.36-.41,.16,.12,.92,.58,1.08,.71,1.29,1.08,3.4,3.25,4.44,7.12,0,0-.28-4.64-.53-5.99-.06-.2-.08-.32-.08-.32,.03,.06,.06,.17,.08,.32,.21,.7,.9,2.45,2.78,4.21,2.37,2.21,6.59,4,7.8,8.13-.17,.61-.27,1.07-.33,1.42-1.54-1.09-3.36-.32-3.36-.32,0,0,.48,.87,.65,1.77-1.23-1.86-2.24-2.3-4.26-2.98-2.39-.8-3.64-3.21-3.64-3.21,0,0-.5,2.04,1.71,3.65,3.42,2.48,3.71,4.38,3.71,4.38-1.37-1.52-3.67-2.24-4.87-2.46-.46-.36-.95-.65-1.45-.9-.76-1.07-1.93-3.19-2.09-6.28-.29-5.85-3.48-8.95-4.66-10.1,0,0,3.38,2.06,5.26,6.12,0,0,.38-2.82-1.87-4.86Z"/><path d="M87.67,639.78s0,0,0,0c-.02-.09,0-.05,0,0Z"/></g><circle class="cls-2" cx="422" cy="423" r="419.56"/><circle class="cls-2" cx="422" cy="423" r="335.56"/></g><g id="Layer_4"><text class="cls-1" transform="translate(150.18 193.88) rotate(-46.69)"><tspan x="0" y="0">P</tspan></text><text class="cls-1" transform="translate(175.44 166.9) rotate(-40.76)"><tspan x="0" y="0">R</tspan></text><text class="cls-1" transform="translate(203.97 142.32) rotate(-35.02)"><tspan x="0" y="0">E</tspan></text><text class="cls-1" transform="translate(231.17 122.58) rotate(-28.4)"><tspan x="0" y="0">M</tspan></text><text class="cls-1" transform="translate(274.44 99.94) rotate(-23.08)"><tspan x="0" y="0">I</tspan></text><text class="cls-1" transform="translate(290.15 92.85) rotate(-18.89)"><tspan x="0" y="0">E</tspan></text><text class="cls-1" transform="translate(322.09 81.72) rotate(-13.08)"><tspan x="0" y="0">R</tspan></text><text class="cls-1" transform="translate(359.31 73.47) rotate(-8.81)"><tspan x="0" y="0"> </tspan></text><text class="cls-1" transform="translate(374.22 71.15) rotate(-6.37)"><tspan x="0" y="0"> </tspan></text><text class="cls-1" transform="translate(389.24 69.45) rotate(-3.95)"><tspan x="0" y="0"> </tspan></text><text class="cls-1" transform="translate(404.35 68.39) rotate(-1.54)"><tspan x="0" y="0"> </tspan></text><text class="cls-1" transform="translate(419.44 67.96) rotate(.93)"><tspan x="0" y="0"> </tspan></text><text class="cls-1" transform="translate(434.58 68.18) rotate(3.26)"><tspan x="0" y="0"> </tspan></text><text class="cls-1" transform="translate(449.67 69.02) rotate(5.68)"><tspan x="0" y="0"> </tspan></text><text class="cls-1" transform="translate(464.73 70.5) rotate(8.12)"><tspan x="0" y="0"> </tspan></text><text class="cls-1" transform="translate(479.18 72.07) rotate(12.37)"><tspan x="0" y="0">P</tspan></text><text class="cls-1" transform="translate(515.31 79.86) rotate(18.39)"><tspan x="0" y="0">R</tspan></text><text class="cls-1" transform="translate(551.03 91.74) rotate(24.19)"><tspan x="0" y="0">E</tspan></text><text class="cls-1" transform="translate(581.9 105) rotate(30.82)"><tspan x="0" y="0">M</tspan></text><text class="cls-1" transform="translate(623.49 130.59) rotate(36.12)"><tspan x="0" y="0">I</tspan></text><text class="cls-1" transform="translate(637.64 140.48) rotate(40.26)"><tspan x="0" y="0">E</tspan></text><text class="cls-1" transform="translate(663.58 162.2) rotate(45.99)"><tspan x="0" y="0">R</tspan></text><text class="cls-1" transform="translate(689.8 189.89) rotate(50.21)"><tspan x="0" y="0"> </tspan></text><text class="cls-1" transform="translate(699.47 201.47) rotate(52.64)"><tspan x="0" y="0"> </tspan></text><text class="cls-1" transform="translate(708.65 213.47) rotate(55.07)"><tspan x="0" y="0"> </tspan></text><text class="cls-1" transform="translate(717.33 225.87) rotate(57.5)"><tspan x="0" y="0"> </tspan></text><text class="cls-1" transform="translate(725.47 238.61) rotate(59.94)"><tspan x="0" y="0"> </tspan></text><text class="cls-1" transform="translate(733.04 251.66) rotate(62.38)"><tspan x="0" y="0"> </tspan></text><text class="cls-1" transform="translate(740.07 265.06) rotate(64.84)"><tspan x="0" y="0"> </tspan></text><text class="cls-1" transform="translate(746.51 278.72) rotate(67.29)"><tspan x="0" y="0"> </tspan></text><text class="cls-1" transform="translate(752.58 291.96) rotate(71.56)"><tspan x="0" y="0">P</tspan></text><text class="cls-1" transform="translate(764.39 326.97) rotate(77.57)"><tspan x="0" y="0">R</tspan></text><text class="cls-1" transform="translate(772.48 363.7) rotate(83.35)"><tspan x="0" y="0">E</tspan></text><text class="cls-1" transform="translate(776.54 397.34) rotate(89.07)"><tspan x="0" y="0">M</tspan></text><text class="cls-1" transform="translate(776.34 445.91) rotate(95.13)"><tspan x="0" y="0">I</tspan></text><text class="cls-1" transform="translate(775.16 463.12) rotate(99.28)"><tspan x="0" y="0">E</tspan></text><text class="cls-1" transform="translate(769.89 496.54) rotate(105.08)"><tspan x="0" y="0">R</tspan></text><text class="cls-1" transform="translate(759.61 533.2) rotate(109.36)"><tspan x="0" y="0"> </tspan></text><text class="cls-1" transform="translate(754.62 547.47) rotate(111.82)"><tspan x="0" y="0"> </tspan></text><text class="cls-1" transform="translate(749.01 561.51) rotate(114.27)"><tspan x="0" y="0"> </tspan></text><text class="cls-1" transform="translate(742.81 575.29) rotate(116.72)"><tspan x="0" y="0"> </tspan></text><text class="cls-1" transform="translate(736.04 588.79) rotate(119.17)"><tspan x="0" y="0"> </tspan></text><text class="cls-1" transform="translate(728.69 601.98) rotate(121.61)"><tspan x="0" y="0"> </tspan></text><text class="cls-1" transform="translate(720.79 614.86) rotate(124.04)"><tspan x="0" y="0"> </tspan></text><text class="cls-1" transform="translate(712.32 627.42) rotate(126.48)"><tspan x="0" y="0"> </tspan></text><text class="cls-1" transform="translate(703.36 639.57) rotate(128.91)"><tspan x="0" y="0"> </tspan></text><text class="cls-1" transform="translate(694.59 651.2) rotate(133.12)"><tspan x="0" y="0">P</tspan></text><text class="cls-1" transform="translate(669.42 678.27) rotate(139.05)"><tspan x="0" y="0">R</tspan></text><text class="cls-1" transform="translate(640.97 702.94) rotate(144.79)"><tspan x="0" y="0">E</tspan></text><text class="cls-1" transform="translate(613.82 722.78) rotate(151.41)"><tspan x="0" y="0">M</tspan></text><text class="cls-1" transform="translate(570.63 745.57) rotate(156.73)"><tspan x="0" y="0">I</tspan></text><text class="cls-1" transform="translate(554.95 752.7) rotate(160.92)"><tspan x="0" y="0">E</tspan></text><text class="cls-1" transform="translate(523.07 763.94) rotate(166.72)"><tspan x="0" y="0">R</tspan></text><text class="cls-1" transform="translate(485.89 772.31) rotate(170.99)"><tspan x="0" y="0"> </tspan></text><text class="cls-1" transform="translate(470.96 774.69) rotate(173.43)"><tspan x="0" y="0"> </tspan></text><text class="cls-1" transform="translate(455.96 776.44) rotate(175.86)"><tspan x="0" y="0"> </tspan></text><text class="cls-1" transform="translate(440.87 777.55) rotate(178.27)"><tspan x="0" y="0"> </tspan></text><text class="cls-1" transform="translate(425.84 778.06) rotate(-179.07)"><tspan x="0" y="0"> </tspan></text><text class="cls-1" transform="translate(410.63 777.86) rotate(-176.93)"><tspan x="0" y="0"> </tspan></text><text class="cls-1" transform="translate(395.52 777.07) rotate(-174.51)"><tspan x="0" y="0"> </tspan></text><text class="cls-1" transform="translate(380.49 775.64) rotate(-172.08)"><tspan x="0" y="0"> </tspan></text><text class="cls-1" transform="translate(366.01 774.12) rotate(-167.82)"><tspan x="0" y="0">P</tspan></text><text class="cls-1" transform="translate(329.85 766.45) rotate(-161.81)"><tspan x="0" y="0">R</tspan></text><text class="cls-1" transform="translate(294.1 754.7) rotate(-156.01)"><tspan x="0" y="0">E</tspan></text><text class="cls-1" transform="translate(263.18 741.54) rotate(-149.37)"><tspan x="0" y="0">M</tspan></text><text class="cls-1" transform="translate(221.5 716.09) rotate(-144.08)"><tspan x="0" y="0">I</tspan></text><text class="cls-1" transform="translate(207.34 706.27) rotate(-139.94)"><tspan x="0" y="0">E</tspan></text><text class="cls-1" transform="translate(181.29 684.61) rotate(-134.2)"><tspan x="0" y="0">R</tspan></text><text class="cls-1" transform="translate(154.99 657.02) rotate(-129.98)"><tspan x="0" y="0"> </tspan></text><text class="cls-1" transform="translate(145.28 645.46) rotate(-127.56)"><tspan x="0" y="0"> </tspan></text><text class="cls-1" transform="translate(136.06 633.5) rotate(-125.13)"><tspan x="0" y="0"> </tspan></text><text class="cls-1" transform="translate(127.34 621.13) rotate(-122.69)"><tspan x="0" y="0"> </tspan></text><text class="cls-1" transform="translate(119.16 608.42) rotate(-120.25)"><tspan x="0" y="0"> </tspan></text><text class="cls-1" transform="translate(111.53 595.37) rotate(-117.81)"><tspan x="0" y="0"> </tspan></text><text class="cls-1" transform="translate(104.48 582.03) rotate(-115.36)"><tspan x="0" y="0"> </tspan></text><text class="cls-1" transform="translate(97.99 568.38) rotate(-112.91)"><tspan x="0" y="0"> </tspan></text><text class="cls-1" transform="translate(91.87 555.15) rotate(-108.63)"><tspan x="0" y="0">P</tspan></text><text class="cls-1" transform="translate(79.94 520.19) rotate(-102.62)"><tspan x="0" y="0">R</tspan></text><text class="cls-1" transform="translate(71.72 483.47) rotate(-96.84)"><tspan x="0" y="0">E</tspan></text><text class="cls-1" transform="translate(67.46 449.94) rotate(-90.93)"><tspan x="0" y="0">M</tspan></text><text class="cls-1" transform="translate(67.58 401.29) rotate(-85.07)"><tspan x="0" y="0">I</tspan></text><text class="cls-1" transform="translate(68.71 384.09) rotate(-80.91)"><tspan x="0" y="0">E</tspan></text><text class="cls-1" transform="translate(73.86 350.64) rotate(-75.11)"><tspan x="0" y="0">R</tspan></text><text class="cls-1" transform="translate(84.02 313.93) rotate(-70.83)"><tspan x="0" y="0"> </tspan></text><text class="cls-1" transform="translate(88.97 299.64) rotate(-68.37)"><tspan x="0" y="0"> </tspan></text><text class="cls-1" transform="translate(94.52 285.61) rotate(-65.92)"><tspan x="0" y="0"> </tspan></text><text class="cls-1" transform="translate(100.67 271.8) rotate(-63.47)"><tspan x="0" y="0"> </tspan></text><text class="cls-1" transform="translate(107.4 258.28) rotate(-61.03)"><tspan x="0" y="0"> </tspan></text><text class="cls-1" transform="translate(114.7 245.06) rotate(-58.59)"><tspan x="0" y="0"> </tspan></text><text class="cls-1" transform="translate(122.58 232.13) rotate(-56.15)"><tspan x="0" y="0"> </tspan></text><text class="cls-1" transform="translate(130.97 219.59) rotate(-53.72)"><tspan x="0" y="0"> </tspan></text></g></svg>