<svg width="22" height="22" viewBox="0 0 22 22" fill="none" xmlns="http://www.w3.org/2000/svg">
<path d="M11 5.39131L8.81357 0.000244141L8.85127 5.81964L4.77245 1.67664L7.03427 7.03079L1.67375 4.77097L5.82043 8.85489L0 8.81058L5.39068 10.9966L0 13.1899L5.82043 13.1456L1.67375 17.2295L7.03427 14.9623L4.77245 20.3238L8.85127 16.1808L8.81357 22.0002L11 16.6092L13.1864 22.0002L13.1487 16.1808L17.2276 20.3238L14.9657 14.9623L20.3263 17.2295L16.1796 13.1456L22 13.1899L16.6093 10.9966L22 8.81058L16.1796 8.85489L20.3263 4.77097L14.9657 7.03079L17.2276 1.67664L13.1487 5.81964L13.1864 0.000244141L11 5.39131Z" fill="currentColor"/>
</svg>
